<?xml version="1.0" encoding="UTF-8"?>
<svg version="1.1" xmlns="http://www.w3.org/2000/svg" width="225" height="225">
<path d="M0 0 C74.25 0 148.5 0 225 0 C225 74.25 225 148.5 225 225 C150.75 225 76.5 225 0 225 C0 150.75 0 76.5 0 0 Z " fill="#03B1CC" transform="translate(0,0)"/>
<path d="M0 0 C74.25 0 148.5 0 225 0 C225 74.25 225 148.5 225 225 C150.75 225 76.5 225 0 225 C0 150.75 0 76.5 0 0 Z M48 33 C48 33.66 48 34.32 48 35 C47.443125 35.226875 46.88625 35.45375 46.3125 35.6875 C42.45022783 37.87960042 39.75312894 41.05858883 37 44.5 C35 47 35 47 32.65625 49.18359375 C29.6110207 52.41243246 27.6116748 55.68762534 25.5 59.5625 C25.10981689 60.26995361 24.71963379 60.97740723 24.31762695 61.70629883 C10.6641911 86.85646755 7.01703498 113.42467864 15 141 C19.21007826 154.81943518 25.68100128 166.9059539 35 178 C35.61617187 178.75023437 36.23234375 179.50046875 36.8671875 180.2734375 C53.19363394 199.48487849 77.24892317 210.69985642 102 214 C131.66051128 216.04641157 158.06012668 206.65976602 181 188 C176.59156563 182.70987876 171.92440206 177.81191572 167 173 C163.59787701 174.61382757 160.89675481 176.58603766 158 179 C157.67 177.741875 157.34 176.48375 157 175.1875 C154.42972303 166.52378592 150.58676889 158.2802976 147 150 C153.64168611 152.11644743 160.10461783 154.5673908 166.5625 157.1875 C167.47580078 157.55552734 168.38910156 157.92355469 169.33007812 158.30273438 C171.55436264 159.19943546 173.77763445 160.09855598 176 161 C175 164 175 164 172 166 C172.30970894 171.38493928 175.35430107 173.82467404 179.0625 177.3125 C179.63033203 177.86228516 180.19816406 178.41207031 180.78320312 178.97851562 C182.17990925 180.32827365 183.58878837 181.66541525 185 183 C203.30147508 164.79080126 213.97667618 141.28615584 214.19042969 115.22216797 C214.16418246 89.714239 207.7067079 65.11148362 190 46 C188.83333333 44.58333333 187.66666667 43.16666667 186.5 41.75 C182.80062009 37.55047082 178.50474726 34.28904837 174 31 C172.93845703 30.15888672 172.93845703 30.15888672 171.85546875 29.30078125 C170.10472588 27.80865311 170.10472588 27.80865311 168 28 C168 27.34 168 26.68 168 26 C129.15179494 4.41766386 83.78762078 4.99229678 48 33 Z " fill="#F5FAFA" transform="translate(0,0)"/>
<path d="M0 0 C0 7.5405109 -4.22009083 11.52659387 -9 17 C-9.95099117 18.12089448 -10.90012634 19.24336557 -11.84765625 20.3671875 C-19.68985932 29.6331543 -19.68985932 29.6331543 -23.74609375 33.953125 C-29.32336691 39.89542517 -33.95629622 45.91203059 -38 53 C-38.57621094 53.97839844 -38.57621094 53.97839844 -39.1640625 54.9765625 C-40.86939809 59.1044309 -40.54342063 63.63322711 -40 68 C-38.19881522 71.00197464 -37.09667268 72.45166366 -34 74 C-26.80532372 74.98676984 -21.6110057 74.08498724 -15.59375 70.01953125 C-7.59861537 63.79440384 -0.63194173 56.7442871 6.12329102 49.22045898 C16.36937419 37.86729765 16.36937419 37.86729765 23 35 C27.4 35.4 27.4 35.4 29 37 C28.72756239 41.90387696 27.77886617 45.76132191 25.9375 50.3125 C23.80719949 55.92307167 23.02435045 61.03878122 24 67 C26.10985506 70.69224636 28.12400895 72.40194221 32 74 C37.69674787 74.56299518 43.38169679 73.97709621 49 73 C49 73.66 49 74.32 49 75 C49.66 75.33 50.32 75.66 51 76 C50.67 76.99 50.34 77.98 50 79 C50.99 79 51.98 79 53 79 C53.99 77.02 53.99 77.02 55 75 C55.66 75 56.32 75 57 75 C56.98839844 73.87722656 56.97679687 72.75445312 56.96484375 71.59765625 C56.91048749 63.98693084 56.90182265 56.5499693 58 49 C58.33 49.66 58.66 50.32 59 51 C59.66 51 60.32 51 61 51 C61 47.37 61 43.74 61 40 C61.66 39.67 62.32 39.34 63 39 C64.00046619 64.7897952 56.55696795 88.06084857 40 108 C39.48824219 108.62261719 38.97648438 109.24523437 38.44921875 109.88671875 C37.30844814 111.2652838 36.1558214 112.63402926 35 114 C32.64002661 112.02532838 30.31119834 110.03064825 28 108 C27.32066406 107.4121875 26.64132813 106.824375 25.94140625 106.21875 C21.03173799 101.71410467 21.03173799 101.71410467 20.875 98.1875 C22 96 22 96 25 94 C25 93.34 25 92.68 25 92 C21.29265349 90.53914925 17.58395204 89.08176912 13.875 87.625 C12.82828125 87.2125 11.7815625 86.8 10.703125 86.375 C9.68476563 85.97539062 8.66640625 85.57578125 7.6171875 85.1640625 C6.21895752 84.61419678 6.21895752 84.61419678 4.79248047 84.05322266 C1.88478483 82.956545 -1.04604463 81.9643235 -4 81 C-3.66677734 81.80743652 -3.33355469 82.61487305 -2.99023438 83.44677734 C-1.75745543 86.43863701 -0.52781138 89.43175984 0.69970703 92.42578125 C1.23197786 93.72219683 1.76550105 95.01809894 2.30029297 96.31347656 C3.06805964 98.17377949 3.83097659 100.03608163 4.59375 101.8984375 C5.28500977 103.57945557 5.28500977 103.57945557 5.99023438 105.29443359 C7 108 7 108 7 110 C9.31 108.02 11.62 106.04 14 104 C17.20815804 105.60407902 18.66358318 106.41713934 21.015625 108.8203125 C21.54414063 109.35527344 22.07265625 109.89023438 22.6171875 110.44140625 C23.15601563 110.99699219 23.69484375 111.55257812 24.25 112.125 C24.80429688 112.68832031 25.35859375 113.25164062 25.9296875 113.83203125 C27.29104485 115.21686028 28.64614859 116.60783204 30 118 C16.76977143 131.58209635 0.31154071 138.99632597 -18 143 C-19.32451172 143.33644531 -19.32451172 143.33644531 -20.67578125 143.6796875 C-45.07607771 149.22003475 -70.89345454 142.78377705 -91.88671875 130 C-96.17035985 127.24815026 -100.13048571 124.30462169 -104 121 C-104.80953125 120.33484375 -105.6190625 119.6696875 -106.453125 118.984375 C-123.3562652 104.57004072 -136.66325491 81.44807582 -139 59 C-139.57641211 49.37235986 -138.59223412 39.61322883 -138 30 C-137.01 29.67 -136.02 29.34 -135 29 C-135.03480469 29.89525391 -135.03480469 29.89525391 -135.0703125 30.80859375 C-135.25427929 39.65214022 -134.14866579 48.25167931 -133 57 C-132.67 55.35 -132.34 53.7 -132 52 C-130.02 51.505 -130.02 51.505 -128 51 C-127.96261719 51.86882812 -127.92523438 52.73765625 -127.88671875 53.6328125 C-127.39644362 63.84740551 -127.39644362 63.84740551 -121.859375 72.1171875 C-116.39033704 75.71838463 -109.3113309 74.82170935 -103 74 C-77.78334465 67.79590225 -58.01946278 46.84621195 -41.67089844 27.90014648 C-14.04845165 -3.51211291 -14.04845165 -3.51211291 0 0 Z " fill="#074877" transform="translate(151,69)"/>
<path d="M0 0 C34.32 0 68.64 0 104 0 C104 0.33 104 0.66 104 1 C98.96875 1.71875 98.96875 1.71875 93.9375 2.4375 C92.99455078 2.57220703 92.05160156 2.70691406 91.08007812 2.84570312 C86.05338542 3.56380208 81.02669271 4.28190104 76 5 C76 5.66 76 6.32 76 7 C74.67548828 7.41958984 74.67548828 7.41958984 73.32421875 7.84765625 C65.98248025 10.30015966 59.80264538 13.03942548 53.3515625 17.42578125 C51.3892401 18.73942897 49.50794325 19.81678952 47.375 20.8125 C44.86458333 21.77083333 44.86458333 21.77083333 44 24 C43.34 24 42.68 24 42 24 C41.505 25.485 41.505 25.485 41 27 C36.54285714 31 36.54285714 31 34 31 C33.67 31.99 33.34 32.98 33 34 C32.34 34 31.68 34 31 34 C30.773125 34.53625 30.54625 35.0725 30.3125 35.625 C27.94340796 39.91192845 25.07057819 43.2862812 21 46 C20.28752268 47.6476038 19.62599617 49.31763529 19 51 C18.00606087 52.67028824 17.00480681 54.33622686 16 56 C6.13591128 73.72646907 1.75796911 90.91261177 1.6875 111.1875 C1.68488159 111.90286926 1.68226318 112.61823853 1.67956543 113.35528564 C1.67388084 127.84734516 2.99455975 141.66155931 9.16796875 154.9921875 C10.12365906 157.2984073 10.57662015 159.54525216 11 162 C11.66 162 12.32 162 13 162 C13.44730469 162.85722656 13.89460937 163.71445313 14.35546875 164.59765625 C18.27983266 172.11411036 18.27983266 172.11411036 22.9375 179.1875 C25 182 25 182 25 184 C25.66 184 26.32 184 27 184 C30 187.46153846 30 187.46153846 30 190 C31.32 190.66 32.64 191.32 34 192 C34 192.66 34 193.32 34 194 C34.721875 194.226875 35.44375 194.45375 36.1875 194.6875 C39.57979763 196.27057223 41.38413408 198.32329999 44 201 C49.4568905 205.54731265 49.4568905 205.54731265 56 208 C56.433125 208.45375 56.86625 208.9075 57.3125 209.375 C61.16341325 213.08328683 66.99158728 214.4119667 72 216 C72 216.66 72 217.32 72 218 C73.8253125 218.185625 73.8253125 218.185625 75.6875 218.375 C78.14597702 218.62501461 80.04646498 219.01895543 82.34594727 219.95703125 C91.57753469 223.5847878 101.6174776 223.3726306 111.38671875 223.37060547 C113.73251649 223.37496749 116.0764094 223.4113728 118.421875 223.44921875 C128.60745807 223.5256545 137.30631604 222.19716384 147 219 C147.85335937 218.72188477 148.70671875 218.44376953 149.5859375 218.15722656 C151.61903118 217.4606036 153.6222181 216.71635963 155.625 215.9375 C156.27855469 215.69451172 156.93210938 215.45152344 157.60546875 215.20117188 C161.32472373 213.78484952 164.60850211 212.06305918 168 210 C168.66 210 169.32 210 170 210 C170 209.34 170 208.68 170 208 C171.98 207.34 173.96 206.68 176 206 C176 205.34 176 204.68 176 204 C177.32 203.67 178.64 203.34 180 203 C180 202.34 180 201.68 180 201 C181.32 200.67 182.64 200.34 184 200 C184 199.34 184 198.68 184 198 C185.35268136 196.88308009 186.75909557 195.83079157 188.1875 194.8125 C192.47304589 191.60507886 195.03188561 188.40720015 198 184 C198.66 184 199.32 184 200 184 C200.28875 183.236875 200.5775 182.47375 200.875 181.6875 C202 179 202 179 204 176 C204.66 176 205.32 176 206 176 C206 175.34 206 174.68 206 174 C206.66 174 207.32 174 208 174 C208.3403125 172.824375 208.3403125 172.824375 208.6875 171.625 C210.07781071 167.78509424 211.80598503 164.27999752 213.68359375 160.66015625 C219.59187834 148.72086305 222.31646918 136.13597073 224 123 C224.33 123 224.66 123 225 123 C225 156.66 225 190.32 225 225 C150.75 225 76.5 225 0 225 C0 150.75 0 76.5 0 0 Z " fill="#FEFEFE" transform="translate(0,0)"/>
<path d="M0 0 C3.44141855 2.12342847 5.74196809 4.11153775 7 8 C8.0260888 14.15653279 5.21817245 18.9468437 2 24 C-1.40929941 28.54620626 -5.20230317 32.77809949 -9 37 C-9.77988281 37.86753906 -10.55976563 38.73507813 -11.36328125 39.62890625 C-12.82261412 41.24376305 -14.28224675 42.858349 -15.7421875 44.47265625 C-27.91903501 56.66105524 -27.91903501 56.66105524 -34.1484375 71.78515625 C-34.09945312 72.51605469 -34.05046875 73.24695313 -34 74 C-31.40464112 74.97325958 -29.6442902 75.24623368 -27.02734375 74.24609375 C-24.98704994 73.21259913 -22.99313313 72.12138504 -21 71 C-20.27941406 70.68675781 -19.55882812 70.37351562 -18.81640625 70.05078125 C-16.65438855 69.06787875 -16.65438855 69.06787875 -16 66 C-14.22265625 64.28125 -14.22265625 64.28125 -12.0625 62.5 C-9.49024808 60.37123979 -7.87739237 58.81608855 -6 56 C-5.34 56 -4.68 56 -4 56 C-3.65001953 55.16275391 -3.65001953 55.16275391 -3.29296875 54.30859375 C1.08455376 46.49253393 9.64381497 39.81199714 17.5 35.6875 C20.96974448 34.73332027 23.40649563 34.50434423 27 35 C30.26927653 37.11465109 33.24184404 39.48368807 35 43 C35.9642481 51.33385861 34.309367 57.4377996 31.046875 65.0625 C29.66768297 68.93247165 29.82894116 71.12649767 31 75 C36.0302076 74.47462276 41.01885239 73.89405214 46 73 C46 75.97 46 78.94 46 82 C40.71130598 84.22681854 35.65815587 84.75442078 30 84 C25.97818082 81.95252842 23.4025663 79.79208471 21 76 C19.4126023 68.19529464 21.99447824 61.33025633 24.90625 54.1640625 C25.93864831 51.17748166 26.23373061 49.1203036 26 46 C23.79561167 45.12245809 23.79561167 45.12245809 21 45 C12.36197781 50.13291002 5.13290809 57.44788431 -1.3359375 65.06640625 C-7.85534353 72.64177241 -17.20287646 82.88107744 -27.5859375 84.37109375 C-36.04284983 84.57244881 -36.04284983 84.57244881 -39.625 81.625 C-43.38624434 77.46783521 -43.47936916 74.54244227 -43.38671875 69.0546875 C-41.76370453 56.23451455 -29.1677328 45.46214313 -20.74072266 36.40673828 C-16.45731615 31.79866886 -12.33756083 27.12420469 -8.4375 22.1875 C-7.63183594 21.17042969 -6.82617188 20.15335938 -5.99609375 19.10546875 C-3.77916827 15.65643596 -2.91931527 12.96050958 -2 9 C-8.72979158 8.43918403 -13.4381418 10.22442396 -18.76953125 14.37890625 C-20.18104013 15.58435544 -21.59067063 16.79200339 -23 18 C-23.66 18 -24.32 18 -25 18 C-25.495 19.485 -25.495 19.485 -26 21 C-27.390625 22.3671875 -27.390625 22.3671875 -29.25 23.875 C-33.20193301 27.22880261 -36.89836001 30.77652786 -40.5625 34.4375 C-41.35672363 35.22519775 -41.35672363 35.22519775 -42.16699219 36.02880859 C-45.03120727 38.90271795 -47.76906537 41.8468653 -50.42578125 44.9140625 C-65.05662356 61.79114209 -85.37793678 81.92401366 -108.83984375 84.40625 C-121.05911359 84.86192878 -121.05911359 84.86192878 -125.375 81.3125 C-129.06194993 77.49739405 -130.30659295 73.02568079 -130.4375 67.8125 C-130.14817327 55.8215143 -122.08551061 47.98018446 -113.96875 40.00390625 C-112.125 38.3125 -112.125 38.3125 -109 36 C-106 37 -106 37 -104.75 38.8125 C-103.84432168 41.45406177 -104.02528347 42.40891938 -105 45 C-106.63671875 46.640625 -106.63671875 46.640625 -108.6875 48.25 C-113.82344112 52.53763487 -118.47325213 57.71306809 -121 64 C-121.13982502 66.30147795 -121.13982502 66.30147795 -120.8125 68.625 C-120.73644531 69.40101563 -120.66039062 70.17703125 -120.58203125 70.9765625 C-120.12586066 73.38285657 -120.12586066 73.38285657 -117 75 C-103.20245657 76.82231706 -89.80451773 67.73637496 -79.19921875 59.94140625 C-70.28755878 52.91267299 -62.11942076 44.80542552 -54.70703125 36.21484375 C-18.69051364 -5.27900003 -18.69051364 -5.27900003 0 0 Z " fill="#EEF8F8" transform="translate(153,60)"/>
<path d="M0 0 C34.65 0 69.3 0 105 0 C105 32.67 105 65.34 105 99 C104.67 99 104.34 99 104 99 C103.82984375 98.05640625 103.6596875 97.1128125 103.484375 96.140625 C101.34535947 84.80839378 98.58150354 74.32801845 92.953125 64.15625 C92 62 92 62 92 58 C91.34 58 90.68 58 90 58 C88.92474806 55.34771188 87.90543849 52.71631546 87 50 C86.34 50 85.68 50 85 50 C84.443125 48.948125 83.88625 47.89625 83.3125 46.8125 C81.31364263 43.30746137 78.93188562 40.78886681 76 38 C74.824375 36.5459375 74.824375 36.5459375 73.625 35.0625 C71.18970975 32.05145422 68.3826375 29.69795555 65.35546875 27.296875 C64.90816406 26.86890625 64.46085937 26.4409375 64 26 C64 25.34 64 24.68 64 24 C63.360625 23.87625 62.72125 23.7525 62.0625 23.625 C61.0415625 23.315625 61.0415625 23.315625 60 23 C59.505 22.01 59.505 22.01 59 21 C57.17712703 20.06154746 55.31635447 19.19564908 53.4375 18.375 C52.42558594 17.92898437 51.41367188 17.48296875 50.37109375 17.0234375 C49.58863281 16.68570312 48.80617187 16.34796875 48 16 C48 15.34 48 14.68 48 14 C47.11828125 13.80857422 47.11828125 13.80857422 46.21875 13.61328125 C44 13 44 13 40.5 11.1875 C28.06423723 4.84319219 13.85809464 1.80538025 0 1 C0 0.67 0 0.34 0 0 Z " fill="#FEFEFE" transform="translate(120,0)"/>
<path d="M0 0 C2.78922815 1.56529006 2.78922815 1.56529006 5.828125 2.48828125 C5.828125 3.14828125 5.828125 3.80828125 5.828125 4.48828125 C6.50875 4.57078125 7.189375 4.65328125 7.890625 4.73828125 C11.74970787 5.723579 14.46067802 7.35124759 17.828125 9.48828125 C18.158125 10.14828125 18.488125 10.80828125 18.828125 11.48828125 C19.818125 11.81828125 20.808125 12.14828125 21.828125 12.48828125 C23.07559755 13.93272315 24.31815276 15.38258254 25.5078125 16.875 C28.2640427 20.24281974 31.49887979 23.17366916 34.640625 26.17578125 C36.828125 28.48828125 36.828125 28.48828125 36.828125 30.48828125 C37.446875 30.69453125 38.065625 30.90078125 38.703125 31.11328125 C41.67466145 33.03604013 41.95837159 35.15422652 42.828125 38.48828125 C43.488125 38.48828125 44.148125 38.48828125 44.828125 38.48828125 C47.57188171 41.44309617 47.828125 42.26300033 47.828125 46.48828125 C48.488125 46.48828125 49.148125 46.48828125 49.828125 46.48828125 C50.783503 48.87672626 51.73788867 51.26550316 52.6875 53.65625 C53.38799234 55.39548612 54.10343273 57.12890115 54.84375 58.8515625 C65.28019052 83.49315816 66.80403979 114.30463857 56.828125 139.48828125 C55.64148202 142.01339359 54.38962224 144.49019313 53.09375 146.9609375 C51.40056303 150.34208555 50.05630673 153.82378246 48.72265625 157.359375 C47.828125 159.48828125 47.828125 159.48828125 45.828125 162.48828125 C45.168125 162.48828125 44.508125 162.48828125 43.828125 162.48828125 C43.828125 163.14828125 43.828125 163.80828125 43.828125 164.48828125 C43.168125 164.48828125 42.508125 164.48828125 41.828125 164.48828125 C41.395 165.35453125 41.395 165.35453125 40.953125 166.23828125 C40.581875 166.98078125 40.210625 167.72328125 39.828125 168.48828125 C39.539375 169.14828125 39.250625 169.80828125 38.953125 170.48828125 C37.5698479 172.94744054 35.85454298 174.51815266 33.828125 176.48828125 C32.82047184 177.6692941 31.82100386 178.85732081 30.828125 180.05078125 C28.68966709 182.5672494 26.67956279 184.75705116 23.828125 186.48828125 C23.168125 186.48828125 22.508125 186.48828125 21.828125 186.48828125 C21.828125 187.14828125 21.828125 187.80828125 21.828125 188.48828125 C20.508125 188.81828125 19.188125 189.14828125 17.828125 189.48828125 C17.828125 190.14828125 17.828125 190.80828125 17.828125 191.48828125 C16.508125 191.81828125 15.188125 192.14828125 13.828125 192.48828125 C13.828125 193.14828125 13.828125 193.80828125 13.828125 194.48828125 C10.858125 195.47828125 10.858125 195.47828125 7.828125 196.48828125 C7.828125 197.14828125 7.828125 197.80828125 7.828125 198.48828125 C2.03501794 201.63549806 -3.89143152 204.2724996 -10.046875 206.61328125 C-10.66949219 206.85449707 -11.29210937 207.09571289 -11.93359375 207.34423828 C-13.9984773 208.11331278 -16.07457127 208.81244813 -18.171875 209.48828125 C-19.01411621 209.76333496 -19.85635742 210.03838867 -20.72412109 210.32177734 C-29.06620249 212.73987594 -37.07714602 212.94920558 -45.68896484 212.87939453 C-48.03672804 212.86335059 -50.38275838 212.87930256 -52.73046875 212.8984375 C-65.85155377 212.91628873 -77.66797373 210.55060862 -90.171875 206.48828125 C-90.171875 205.82828125 -90.171875 205.16828125 -90.171875 204.48828125 C-90.955625 204.42640625 -91.739375 204.36453125 -92.546875 204.30078125 C-97.52476293 203.18504775 -101.69641194 200.88521898 -106.171875 198.48828125 C-106.171875 197.82828125 -106.171875 197.16828125 -106.171875 196.48828125 C-107.23728516 196.35873047 -107.23728516 196.35873047 -108.32421875 196.2265625 C-111.78432845 195.32949702 -113.88026019 193.81537497 -116.734375 191.67578125 C-117.66378906 190.98871094 -118.59320313 190.30164063 -119.55078125 189.59375 C-121.93546098 187.6781876 -124.03715208 185.67254415 -126.171875 183.48828125 C-127.1825 182.66328125 -128.193125 181.83828125 -129.234375 180.98828125 C-131.67701092 178.90944217 -133.49307858 177.19300882 -135.171875 174.48828125 C-135.171875 173.82828125 -135.171875 173.16828125 -135.171875 172.48828125 C-135.831875 172.48828125 -136.491875 172.48828125 -137.171875 172.48828125 C-138.28515625 171.11474609 -138.28515625 171.11474609 -139.484375 169.19921875 C-139.92007813 168.50441406 -140.35578125 167.80960938 -140.8046875 167.09375 C-141.48144531 165.98966797 -141.48144531 165.98966797 -142.171875 164.86328125 C-142.62304688 164.15042969 -143.07421875 163.43757812 -143.5390625 162.703125 C-146.00361318 158.72921932 -147.91004117 155.03375085 -149.171875 150.48828125 C-149.831875 150.48828125 -150.491875 150.48828125 -151.171875 150.48828125 C-155.14626716 140.97580164 -157.90736623 131.52316324 -160.171875 121.48828125 C-160.43556885 120.35036133 -160.43556885 120.35036133 -160.70458984 119.18945312 C-165.04246752 94.11407247 -159.68461938 69.44893239 -148.546875 47.05078125 C-148.2478125 46.44041016 -147.94875 45.83003906 -147.640625 45.20117188 C-146.3452595 42.60184332 -145.24024551 40.55665176 -143.171875 38.48828125 C-142.8625 37.64265625 -142.553125 36.79703125 -142.234375 35.92578125 C-141.88375 35.12140625 -141.533125 34.31703125 -141.171875 33.48828125 C-139.686875 32.99328125 -139.686875 32.99328125 -138.171875 32.48828125 C-136.96305404 30.48811659 -136.96305404 30.48811659 -136.171875 28.48828125 C-135.511875 28.48828125 -134.851875 28.48828125 -134.171875 28.48828125 C-133.924375 27.93140625 -133.676875 27.37453125 -133.421875 26.80078125 C-130.70938759 21.78267953 -127.3543884 18.68749241 -122.66015625 15.6015625 C-121.01198237 14.54211362 -121.01198237 14.54211362 -120.171875 12.48828125 C-119.511875 12.48828125 -118.851875 12.48828125 -118.171875 12.48828125 C-117.676875 11.00328125 -117.676875 11.00328125 -117.171875 9.48828125 C-115.85219507 8.79371286 -114.52291542 8.11440957 -113.1640625 7.5 C-110.61360372 6.20476701 -108.30422745 4.63339215 -105.921875 3.05078125 C-99.75044134 -0.92318422 -93.63730993 -4.51171875 -86.171875 -4.51171875 C-86.171875 -5.17171875 -86.171875 -5.83171875 -86.171875 -6.51171875 C-57.78721055 -14.57554388 -26.37735207 -14.06189888 0 0 Z M-108.171875 8.48828125 C-109.161875 8.98328125 -109.161875 8.98328125 -110.171875 9.48828125 C-110.171875 10.14828125 -110.171875 10.80828125 -110.171875 11.48828125 C-110.74421875 11.76671875 -111.3165625 12.04515625 -111.90625 12.33203125 C-114.13805066 13.47101917 -116.28058374 14.68764508 -118.421875 15.98828125 C-119.48148438 16.6225 -119.48148438 16.6225 -120.5625 17.26953125 C-121.09359375 17.67171875 -121.6246875 18.07390625 -122.171875 18.48828125 C-122.171875 19.14828125 -122.171875 19.80828125 -122.171875 20.48828125 C-122.749375 20.73578125 -123.326875 20.98328125 -123.921875 21.23828125 C-126.50127479 22.67128113 -128.23309092 24.27252801 -130.171875 26.48828125 C-130.171875 27.14828125 -130.171875 27.80828125 -130.171875 28.48828125 C-130.831875 28.48828125 -131.491875 28.48828125 -132.171875 28.48828125 C-133.85475252 30.53032711 -133.85475252 30.53032711 -135.546875 33.11328125 C-136.47693359 34.48419922 -136.47693359 34.48419922 -137.42578125 35.8828125 C-138.00199219 36.74261719 -138.57820313 37.60242187 -139.171875 38.48828125 C-139.59339844 39.09027344 -140.01492187 39.69226562 -140.44921875 40.3125 C-142.51119504 43.27707723 -143.85014774 46.14508876 -145.171875 49.48828125 C-145.91900918 50.71919197 -146.66948688 51.94807493 -147.421875 53.17578125 C-154.13439438 65.16669125 -157.42513518 78.85405671 -158.171875 92.48828125 C-158.21570313 93.25366211 -158.25953125 94.01904297 -158.3046875 94.80761719 C-159.00351142 109.25580176 -156.68422631 122.52478119 -153.171875 136.48828125 C-152.511875 136.48828125 -151.851875 136.48828125 -151.171875 136.48828125 C-151.07003906 137.32617188 -150.96820313 138.1640625 -150.86328125 139.02734375 C-150.09063055 142.89496249 -148.7175203 146.28879587 -147.109375 149.86328125 C-146.82771484 150.50394531 -146.54605469 151.14460937 -146.25585938 151.8046875 C-145.56728079 153.36857784 -144.87042789 154.92882066 -144.171875 156.48828125 C-143.511875 156.48828125 -142.851875 156.48828125 -142.171875 156.48828125 C-141.800625 157.29265625 -141.800625 157.29265625 -141.421875 158.11328125 C-139.87227328 161.05752453 -138.04258082 163.73724327 -136.171875 166.48828125 C-135.470625 167.60203125 -134.769375 168.71578125 -134.046875 169.86328125 C-133.428125 170.72953125 -132.809375 171.59578125 -132.171875 172.48828125 C-131.511875 172.48828125 -130.851875 172.48828125 -130.171875 172.48828125 C-129.945 173.06578125 -129.718125 173.64328125 -129.484375 174.23828125 C-127.82425861 177.08419506 -125.77999543 178.48670046 -123.171875 180.48828125 C-121.99625 181.69484375 -121.99625 181.69484375 -120.796875 182.92578125 C-115.67304239 188.1772129 -115.67304239 188.1772129 -109.171875 190.48828125 C-108.841875 191.47828125 -108.511875 192.46828125 -108.171875 193.48828125 C-105.83084185 194.92845351 -103.57205305 196.16686977 -101.109375 197.36328125 C-100.39056152 197.71479248 -99.67174805 198.06630371 -98.93115234 198.4284668 C-78.0802012 208.33119125 -56.99957369 210.05504993 -34.171875 209.48828125 C-34.171875 208.82828125 -34.171875 208.16828125 -34.171875 207.48828125 C-32.42583984 207.55208984 -32.42583984 207.55208984 -30.64453125 207.6171875 C-19.37817023 207.59985845 -8.12522978 201.8239363 1.81640625 196.94140625 C4.828125 195.48828125 4.828125 195.48828125 7.828125 194.48828125 C7.828125 193.82828125 7.828125 193.16828125 7.828125 192.48828125 C8.50875 192.28203125 9.189375 192.07578125 9.890625 191.86328125 C13.82507008 190.0216261 16.62678775 187.38661127 19.828125 184.48828125 C21.22167634 183.25652801 22.61752402 182.02736799 24.015625 180.80078125 C24.64855469 180.24003906 25.28148437 179.67929688 25.93359375 179.1015625 C27.828125 177.48828125 27.828125 177.48828125 29.97265625 175.9296875 C32.32831612 174.09971173 33.35332754 172.0691768 34.828125 169.48828125 C35.42625 168.74578125 36.024375 168.00328125 36.640625 167.23828125 C39.62643339 163.48469355 42.2155653 159.50703456 44.828125 155.48828125 C45.364375 154.68390625 45.900625 153.87953125 46.453125 153.05078125 C48.61919737 149.01401001 50.18593785 144.75929219 51.828125 140.48828125 C52.323125 139.29203125 52.818125 138.09578125 53.328125 136.86328125 C53.84018668 135.40913925 54.3384367 133.95010938 54.828125 132.48828125 C55.18261719 131.52148438 55.53710938 130.5546875 55.90234375 129.55859375 C61.64505104 111.14163071 61.50205324 86.60900761 54.828125 68.48828125 C54.5712793 67.76640625 54.31443359 67.04453125 54.04980469 66.30078125 C52.39753744 61.65953707 50.65355718 57.06403125 48.828125 52.48828125 C48.168125 52.48828125 47.508125 52.48828125 46.828125 52.48828125 C46.725 51.80765625 46.621875 51.12703125 46.515625 50.42578125 C45.17505287 44.69788214 43.25415941 40.39360573 38.828125 36.48828125 C33.94176136 31.82919034 33.94176136 31.82919034 32.828125 28.48828125 C31.13658756 26.77375783 31.13658756 26.77375783 29.078125 25.11328125 C26.74262991 23.16109261 24.55641501 21.21038599 22.42578125 19.03125 C1.64278828 -1.31420627 -27.64487852 -8.0700785 -55.6875 -7.7890625 C-74.87799452 -7.30423477 -91.64814293 -1.06498758 -108.171875 8.48828125 Z " fill="#DEDFDF" transform="translate(162.171875,11.51171875)"/>
<path d="M0 0 C0 7.5405109 -4.22009083 11.52659387 -9 17 C-9.95099117 18.12089448 -10.90012634 19.24336557 -11.84765625 20.3671875 C-19.68985932 29.6331543 -19.68985932 29.6331543 -23.74609375 33.953125 C-29.32336691 39.89542517 -33.95629622 45.91203059 -38 53 C-38.57814453 53.97839844 -38.57814453 53.97839844 -39.16796875 54.9765625 C-40.85791864 59.08639369 -40.44434202 63.64673618 -40 68 C-38.70737631 71.08996833 -38.70737631 71.08996833 -37 73 C-40.50776784 74.60355101 -43.14354879 75.22036864 -47 75 C-46.34 73.68 -45.68 72.36 -45 71 C-44.34 71.33 -43.68 71.66 -43 72 C-43.65484375 71.52046875 -44.3096875 71.0409375 -44.984375 70.546875 C-47.89933326 66.86363317 -47.44621843 63.8007583 -47.25 59.25 C-47.23195313 58.45722656 -47.21390625 57.66445312 -47.1953125 56.84765625 C-47.14833082 54.89791652 -47.07659044 52.94880122 -47 51 C-44.36 51 -41.72 51 -39 51 C-39 50.21625 -39 49.4325 -39 48.625 C-39 47.08333333 -39 45.54166667 -39 44 C-39.15594965 42.45721239 -39.32392903 40.91562095 -39.5 39.375 C-39.5928125 38.55773437 -39.685625 37.74046875 -39.78125 36.8984375 C-39.8534375 36.27195313 -39.925625 35.64546875 -40 35 C-42.97 35.495 -42.97 35.495 -46 36 C-46.33 38.31 -46.66 40.62 -47 43 C-50.465 43.495 -50.465 43.495 -54 44 C-54.33 46.31 -54.66 48.62 -55 51 C-56.98 51 -58.96 51 -61 51 C-61 48 -61 48 -59.82592773 46.5012207 C-59.28395752 45.98132568 -58.7419873 45.46143066 -58.18359375 44.92578125 C-57.58804688 44.34505859 -56.9925 43.76433594 -56.37890625 43.16601562 C-55.73824219 42.55435547 -55.09757812 41.94269531 -54.4375 41.3125 C-53.1322737 40.03964539 -51.82886489 38.76492422 -50.52734375 37.48828125 C-49.90585449 36.87936035 -49.28436523 36.27043945 -48.64404297 35.64306641 C-46.83442166 33.83452002 -45.14400684 31.95999777 -43.5 30 C-14.80053191 -3.70013298 -14.80053191 -3.70013298 0 0 Z " fill="#0893B2" transform="translate(151,69)"/>
<path d="M0 0 C2.97 0.33 5.94 0.66 9 1 C3.95036165 7.00497534 -1.30184183 12.81588832 -6.65234375 18.55273438 C-7.84766637 19.83640693 -9.03388852 21.12854029 -10.21875 22.421875 C-21.36719502 34.15270147 -37.90148584 46.1506208 -54.29296875 48.30078125 C-57.22486951 48.31891672 -59.69454369 48.1174832 -62.4375 47.0625 C-65.06471181 43.59458042 -65.4768743 40.28524541 -65 36 C-62.05505374 28.41201346 -56.20191186 22.13518302 -50 17 C-49.34 17 -48.68 17 -48 17 C-48 19.31 -48 21.62 -48 24 C-50.31 24.33 -52.62 24.66 -55 25 C-55.12375 26.093125 -55.2475 27.18625 -55.375 28.3125 C-56 32 -56 32 -58 35 C-57.34 35 -56.68 35 -56 35 C-56 36.98 -56 38.96 -56 41 C-53.09926819 41.67801034 -53.09926819 41.67801034 -50 42 C-49.34 41.34 -48.68 40.68 -48 40 C-45.31160615 39.73008094 -42.70858064 39.91262643 -40 40 C-40 38.35 -40 36.7 -40 35 C-38.515 35.495 -38.515 35.495 -37 36 C-37 35.34 -37 34.68 -37 34 C-33.88082461 31.92054974 -33.41258857 31.79214424 -29.9375 32 C-28.638125 32 -27.33875 32 -26 32 C-23.4345406 29.4345406 -23.45953913 27.52313332 -23 24 C-20.69 23.67 -18.38 23.34 -16 23 C-15.34 20.69 -14.68 18.38 -14 16 C-11.69 16 -9.38 16 -7 16 C-7.495 15.01 -7.495 15.01 -8 14 C-8.039992 12.00039988 -8.04346799 9.99952758 -8 8 C-5.36 8 -2.72 8 0 8 C0 5.36 0 2.72 0 0 Z " fill="#117395" transform="translate(96,88)"/>
<path d="M0 0 C-0.33 0.99 -0.66 1.98 -1 3 C-0.01 3.33 0.98 3.66 2 4 C2.33 3.34 2.66 2.68 3 2 C3.66 2.33 4.32 2.66 5 3 C5 4.65 5 6.3 5 8 C5.94875 7.814375 6.8975 7.62875 7.875 7.4375 C11 7 11 7 13 8 C13 18 13 28 13 38 C15.64 38.33 18.28 38.66 21 39 C21 43.62 21 48.24 21 53 C20.67 53 20.34 53 20 53 C20 50.03 20 47.06 20 44 C18.63875 44.515625 17.2775 45.03125 15.875 45.5625 C11.88546419 46.88815678 9.09452913 47.3981319 5 46 C2.84013788 42.76020682 2.81434655 41.7707389 3.44140625 38.0703125 C4.0855943 35.68276238 5.04466458 33.56550224 6.0625 31.3125 C8.45701281 25.57619458 8.91680947 20.14534663 8 14 C5.95769333 10.47878161 4.37173484 9.24782323 1 7 C-3.17300608 6.76816633 -6.94020228 7.01580661 -11 8 C-11 5.36 -11 2.72 -11 0 C-6.98195309 -0.84098656 -3.98196457 -1.05404945 0 0 Z " fill="#0D6E96" transform="translate(179,89)"/>
<path d="M0 0 C0 7.51161225 -4.26700333 11.53055983 -9 17 C-9.89676429 18.20764258 -10.79278019 19.41584192 -11.6875 20.625 C-14 23 -14 23 -16.8125 23.375 C-17.534375 23.25125 -18.25625 23.1275 -19 23 C-19.66 24.32 -20.32 25.64 -21 27 C-21.144375 26.236875 -21.28875 25.47375 -21.4375 24.6875 C-21.9632594 21.91827092 -21.9632594 21.91827092 -23 19 C-24.33076989 18.65657551 -25.66431979 18.32380126 -27 18 C-27.66 17.01 -28.32 16.02 -29 15 C-28.278125 14.443125 -27.55625 13.88625 -26.8125 13.3125 C-23.99618792 11.09424987 -23.99618792 11.09424987 -21.75 8.625 C-15.01757393 2.19859329 -9.39293986 -1.59502752 0 0 Z " fill="#0BAAC4" transform="translate(151,69)"/>
<path d="M0 0 C4.66666667 0 9.33333333 0 14 0 C14 0.66 14 1.32 14 2 C0.32487298 12.18609633 -15.42602484 17.78208833 -32 21 C-33.43859375 21.29003906 -33.43859375 21.29003906 -34.90625 21.5859375 C-49.20581489 23.49976815 -65.65851944 22.82265755 -79 17 C-79 16.67 -79 16.34 -79 16 C-70.75 16 -62.5 16 -54 16 C-54 16.99 -54 17.98 -54 19 C-52.3603125 18.7525 -52.3603125 18.7525 -50.6875 18.5 C-47 18 -47 18 -44 18 C-43.39671875 17.84660156 -42.7934375 17.69320312 -42.171875 17.53515625 C-39.53286377 16.88489629 -36.9574624 16.66312187 -34.25 16.4375 C-33.26515625 16.35371094 -32.2803125 16.26992187 -31.265625 16.18359375 C-30.51796875 16.12300781 -29.7703125 16.06242187 -29 16 C-29 16.66 -29 17.32 -29 18 C-28.43796875 17.67257813 -27.8759375 17.34515625 -27.296875 17.0078125 C-24.73140036 15.88214506 -23.03157723 15.7931889 -20.25 15.875 C-19.45078125 15.89304688 -18.6515625 15.91109375 -17.828125 15.9296875 C-17.22484375 15.95289063 -16.6215625 15.97609375 -16 16 C-16.020625 15.05125 -16.04125 14.1025 -16.0625 13.125 C-16 10 -16 10 -15 8 C-12.49642139 8.8345262 -10.33214148 9.79371992 -8 11 C-7.67 10.01 -7.34 9.02 -7 8 C-7 8.66 -7 9.32 -7 10 C-6.34 10 -5.68 10 -5 10 C-4.67 9.34 -4.34 8.68 -4 8 C-2.68 8 -1.36 8 0 8 C0 5.36 0 2.72 0 0 Z " fill="#0B2153" transform="translate(160,192)"/>
<path d="M0 0 C0.66 0 1.32 0 2 0 C1.96519531 0.89525391 1.96519531 0.89525391 1.9296875 1.80859375 C1.74572071 10.65214022 2.85133421 19.25167931 4 28 C4.33 26.35 4.66 24.7 5 23 C6.32 22.67 7.64 22.34 9 22 C9.03738281 22.86882812 9.07476562 23.73765625 9.11328125 24.6328125 C9.63288101 34.55707824 9.63288101 34.55707824 14.6875 42.875 C15.120625 43.24625 15.55375 43.6175 16 44 C15.67 44.66 15.34 45.32 15 46 C13.6078125 46.433125 13.6078125 46.433125 12.1875 46.875 C8.81025773 48.06696786 7.31437551 49.32956672 5 52 C2.80290823 48.70436235 1.99608118 45.93267223 0.9375 42.125 C0.42509766 40.30355469 0.42509766 40.30355469 -0.09765625 38.4453125 C-2.64831992 28.70641484 -2.07282959 19.35598271 -1.5625 9.375 C-1.52334473 8.56844971 -1.48418945 7.76189941 -1.44384766 6.9309082 C-1.11936079 1.11936079 -1.11936079 1.11936079 0 0 Z " fill="#07769B" transform="translate(14,98)"/>
<path d="M0 0 C0.495 0.495 0.495 0.495 1 1 C0.57731286 5.98770821 -0.2327125 10.28723333 -2 15 C-2.33 15 -2.66 15 -3 15 C-3 12.36 -3 9.72 -3 7 C-4.99954746 6.95745644 -7.00041636 6.95919217 -9 7 C-10.96822886 8.96822886 -10.66248381 12.34808709 -11 15 C-11.94875 14.979375 -12.8975 14.95875 -13.875 14.9375 C-16.90666283 14.77448174 -16.90666283 14.77448174 -19 16 C-19 18.31 -19 20.62 -19 23 C-21.31 23 -23.62 23 -26 23 C-26.04125 23.61875 -26.0825 24.2375 -26.125 24.875 C-26.41375 25.57625 -26.7025 26.2775 -27 27 C-28.4540625 27.4640625 -28.4540625 27.4640625 -29.9375 27.9375 C-33.1625338 28.66141206 -33.1625338 28.66141206 -34.1875 31.3125 C-34.455625 32.199375 -34.72375 33.08625 -35 34 C-36 36.8125 -36 36.8125 -38 39 C-41.36955222 39.43548332 -44.62141116 39.28524671 -48 39 C-48.33 38.34 -48.66 37.68 -49 37 C-48.19949219 36.50693359 -48.19949219 36.50693359 -47.3828125 36.00390625 C-37.72598972 29.83891039 -29.99093862 22.11301362 -22.33642578 13.67993164 C-7.5555972 -2.5185324 -7.5555972 -2.5185324 0 0 Z " fill="#0F7C9F" transform="translate(179,105)"/>
<path d="M0 0 C1.2380014 3.57644848 0.74926071 6.33694766 0 10 C-0.66 10 -1.32 10 -2 10 C-2.33 11.65 -2.66 13.3 -3 15 C-3.99 15.33 -4.98 15.66 -6 16 C-6 16.763125 -6 17.52625 -6 18.3125 C-7 21 -7 21 -8.84765625 22 C-10.88309495 22.74668651 -12.91262742 23.41515529 -15 24 C-14.67 26.31 -14.34 28.62 -14 31 C-12.02 31 -10.04 31 -8 31 C-11.36230844 34.65898271 -14.31361431 37.24260537 -19 39 C-23.3902439 38.6097561 -23.3902439 38.6097561 -25 37 C-25 23.76915066 -12.03174082 13.34035568 -3.49291992 4.63476562 C-1.79944233 2.86327709 -1.79944233 2.86327709 0 0 Z " fill="#0D7A9C" transform="translate(143,97)"/>
<path d="M0 0 C-0.33 1.65 -0.66 3.3 -1 5 C-1.66 5 -2.32 5 -3 5 C-3 5.66 -3 6.32 -3 7 C-5.31 7 -7.62 7 -10 7 C-9.67 9.31 -9.34 11.62 -9 14 C-9.78375 13.95875 -10.5675 13.9175 -11.375 13.875 C-14.16116119 13.71271266 -14.16116119 13.71271266 -16 16 C-16.71927295 18.31765729 -17.3909893 20.65095874 -18 23 C-19.010625 23 -20.02125 23 -21.0625 23 C-25.67495333 23.6349126 -27.63119441 26.4331706 -30.4296875 29.921875 C-30.94789062 30.60765625 -31.46609375 31.2934375 -32 32 C-33.30305256 33.69044656 -34.62360375 35.36871556 -36 37 C-36.66 37 -37.32 37 -38 37 C-39 34 -39 34 -37.7421875 31.4765625 C-34.49641022 26.51962231 -31.44519483 21.97727958 -27 18 C-25.700625 16.700625 -25.700625 16.700625 -24.375 15.375 C-23.199375 14.199375 -23.199375 14.199375 -22 13 C-21.443125 12.401875 -20.88625 11.80375 -20.3125 11.1875 C-19 10 -19 10 -17 10 C-17 9.34 -17 8.68 -17 8 C-6.01835486 -2.00611829 -6.01835486 -2.00611829 0 0 Z " fill="#09CEE3" transform="translate(65,25)"/>
<path d="M0 0 C0 0.33 0 0.66 0 1 C-2.60423592 1.02697137 -5.20819244 1.04682489 -7.8125 1.0625 C-8.55048828 1.07087891 -9.28847656 1.07925781 -10.04882812 1.08789062 C-13.29922068 1.10259828 -15.89404895 1.03531702 -19 0 C-19 -0.66 -19 -1.32 -19 -2 C-19.99 -2 -20.98 -2 -22 -2 C-22 -1.34 -22 -0.68 -22 0 C-32.01067417 0.6626451 -41.94845949 1.15577261 -51.98388672 0.875 C-56.40475045 0.80187751 -59.89427372 1.35383616 -64 3 C-64 4.98 -64 6.96 -64 9 C-68.66666667 9 -73.33333333 9 -78 9 C-78.33 8.34 -78.66 7.68 -79 7 C-57.49761606 -7.20768958 -23.78706242 -7.83573821 0 0 Z " fill="#02ECFA" transform="translate(144,15)"/>
<path d="M0 0 C2 2 2 2 2.125 4.625 C2.08375 5.40875 2.0425 6.1925 2 7 C-0.31 7.33 -2.62 7.66 -5 8 C-5.33 10.31 -5.66 12.62 -6 15 C-8.31 15.33 -10.62 15.66 -13 16 C-13.33 18.31 -13.66 20.62 -14 23 C-15.98 23 -17.96 23 -20 23 C-20 22.34 -20 21.68 -20 21 C-20.66 21 -21.32 21 -22 21 C-22 21.66 -22 22.32 -22 23 C-25.96 23 -29.92 23 -34 23 C-34.33 22.34 -34.66 21.68 -35 21 C-34.28457031 20.731875 -33.56914063 20.46375 -32.83203125 20.1875 C-20.54462188 15.35519411 -10.04358482 8.52457763 0 0 Z " fill="#0E688E" transform="translate(86,121)"/>
<path d="M0 0 C0.33 1.65 0.66 3.3 1 5 C3.64 5.33 6.28 5.66 9 6 C9 8.64 9 11.28 9 14 C9.90363281 13.98839844 10.80726562 13.97679687 11.73828125 13.96484375 C12.91777344 13.95582031 14.09726563 13.94679687 15.3125 13.9375 C16.48425781 13.92589844 17.65601563 13.91429687 18.86328125 13.90234375 C22 14 22 14 25 15 C25 17.31 25 19.62 25 22 C20.3773373 21.36639179 16.49639792 19.51730672 12.375 17.4375 C11.67149414 17.08324951 10.96798828 16.72899902 10.24316406 16.36401367 C2.04325774 12.12851714 -5.39298766 7.44600951 -11 0 C-3.57142857 -1.28571429 -3.57142857 -1.28571429 0 0 Z " fill="#10305D" transform="translate(55,186)"/>
<path d="M0 0 C0.66 1.32 1.32 2.64 2 4 C1.52949219 4.65226562 1.05898437 5.30453125 0.57421875 5.9765625 C-5.46637067 14.4558992 -9.26881895 20.29637347 -8 31 C-6.70737631 34.08996833 -6.70737631 34.08996833 -5 36 C-8.50776784 37.60355101 -11.14354879 38.22036864 -15 38 C-14.34 36.68 -13.68 35.36 -13 34 C-12.34 34.33 -11.68 34.66 -11 35 C-11.98226562 34.28070313 -11.98226562 34.28070313 -12.984375 33.546875 C-15.89933326 29.86363317 -15.44621843 26.8007583 -15.25 22.25 C-15.23195313 21.45722656 -15.21390625 20.66445312 -15.1953125 19.84765625 C-15.14833082 17.89791652 -15.07659044 15.94880122 -15 14 C-12.36 14 -9.72 14 -7 14 C-7 13.21625 -7 12.4325 -7 11.625 C-7 9.08333333 -7 6.54166667 -7 4 C-4.92446352 3.4465236 -3.15634036 3 -1 3 C-0.67 2.01 -0.34 1.02 0 0 Z " fill="#13779A" transform="translate(119,106)"/>
<path d="M0 0 C4.08267797 1.1377955 4.67871531 1.6484445 6.8125 5.0625 C8.84816502 5.7122271 8.84816502 5.7122271 10.8125 6.0625 C5.7184081 12.92464442 5.7184081 12.92464442 1.9375 13.5 C1.23625 13.355625 0.535 13.21125 -0.1875 13.0625 C-0.8475 14.3825 -1.5075 15.7025 -2.1875 17.0625 C-2.331875 16.299375 -2.47625 15.53625 -2.625 14.75 C-3.1507594 11.98077092 -3.1507594 11.98077092 -4.1875 9.0625 C-5.51826989 8.71907551 -6.85181979 8.38630126 -8.1875 8.0625 C-8.8475 7.0725 -9.5075 6.0825 -10.1875 5.0625 C-4.83035714 -0.42857143 -4.83035714 -0.42857143 0 0 Z " fill="#08A1BE" transform="translate(132.1875,78.9375)"/>
<path d="M0 0 C0.33 0 0.66 0 1 0 C1.66 4.62 2.32 9.24 3 14 C3.66 13.01 4.32 12.02 5 11 C5 13.64 5 16.28 5 19 C5.66 19 6.32 19 7 19 C7.33 18.34 7.66 17.68 8 17 C11.59905908 17.55550695 12.99909799 18.74887248 15.25 21.5625 C16.03117188 22.52349609 16.03117188 22.52349609 16.828125 23.50390625 C17.21484375 23.99761719 17.6015625 24.49132812 18 25 C17.67 25.66 17.34 26.32 17 27 C15.6078125 27.433125 15.6078125 27.433125 14.1875 27.875 C10.81025773 29.06696786 9.31437551 30.32956672 7 33 C4.80290823 29.70436235 3.99608118 26.93267223 2.9375 23.125 C2.59589844 21.91070312 2.25429687 20.69640625 1.90234375 19.4453125 C0.61786882 14.54095368 -0.1237128 10.26816221 -0.0625 5.1875 C-0.05347656 4.21167969 -0.04445313 3.23585938 -0.03515625 2.23046875 C-0.02355469 1.49441406 -0.01195312 0.75835937 0 0 Z " fill="#0C658A" transform="translate(12,117)"/>
<path d="M0 0 C-0.33 0.99 -0.66 1.98 -1 3 C-0.01 3.33 0.98 3.66 2 4 C2.33 3.34 2.66 2.68 3 2 C3.66 2.33 4.32 2.66 5 3 C5 4.65 5 6.3 5 8 C5.94875 7.814375 6.8975 7.62875 7.875 7.4375 C11 7 11 7 13 8 C13 12.95 13 17.9 13 23 C11.68 23 10.36 23 9 23 C8.97421875 22.40832031 8.9484375 21.81664063 8.921875 21.20703125 C8.54382111 15.94005325 7.94213306 12.82618797 4 9 C-0.28534391 6.14310406 -3.96398073 6.65344353 -8.9375 7.5 C-9.618125 7.665 -10.29875 7.83 -11 8 C-11 5.36 -11 2.72 -11 0 C-6.98195309 -0.84098656 -3.98196457 -1.05404945 0 0 Z " fill="#2398AF" transform="translate(179,89)"/>
<path d="M0 0 C1.4540625 0.0309375 1.4540625 0.0309375 2.9375 0.0625 C2.77636719 0.77535156 2.61523438 1.48820312 2.44921875 2.22265625 C1.24260618 8.91889548 1.20817265 15.7509305 3.9375 22.0625 C3.2775 22.7225 2.6175 23.3825 1.9375 24.0625 C0.26327014 23.76950977 -1.40428227 23.43559899 -3.0625 23.0625 C-3.7225 23.3925 -4.3825 23.7225 -5.0625 24.0625 C-5.0625 21.4225 -5.0625 18.7825 -5.0625 16.0625 C-4.4025 16.0625 -3.7425 16.0625 -3.0625 16.0625 C-3.39894531 15.51980469 -3.73539063 14.97710937 -4.08203125 14.41796875 C-5.30708838 11.47490322 -5.09928586 9.52698925 -4.75 6.375 C-4.65074219 5.40175781 -4.55148438 4.42851563 -4.44921875 3.42578125 C-3.86891741 -0.12050472 -3.70778362 0.07566905 0 0 Z " fill="#09668C" transform="translate(173.0625,119.9375)"/>
<path d="M0 0 C9.40285892 8.28216934 11.67342033 25.25900753 13 37 C13.12034102 39.36800071 13.11024137 41.6298105 13 44 C12.54625 43.505 12.0925 43.01 11.625 42.5 C10.12364481 40.77390663 10.12364481 40.77390663 8 41 C6.92042623 37.76127868 6.86673216 35.33971795 6.875 31.9375 C6.87242187 30.87402344 6.86984375 29.81054688 6.8671875 28.71484375 C7 26 7 26 8 24 C7.90276549 22.00978479 7.90276549 22.00978479 7.5625 19.875 C7.376875 18.59625 7.19125 17.3175 7 16 C6.01 15.67 5.02 15.34 4 15 C4 13.68 4 12.36 4 11 C3.34 12.65 2.68 14.3 2 16 C1.34 15.67 0.68 15.34 0 15 C0 12.69 0 10.38 0 8 C0.66 8 1.32 8 2 8 C2 6.68 2 5.36 2 4 C1.34 4 0.68 4 0 4 C0 2.68 0 1.36 0 0 Z " fill="#1791AD" transform="translate(201,64)"/>
<path d="M0 0 C0.625 1.8125 0.625 1.8125 1 4 C0.01 5.485 0.01 5.485 -1 7 C-0.01 7 0.98 7 2 7 C2.99 7.66 3.98 8.32 5 9 C-2.29840547 17.44646925 -2.29840547 17.44646925 -6 21 C-6.4125 20.505 -6.825 20.01 -7.25 19.5 C-9.12202338 17.56613908 -9.12202338 17.56613908 -13 18 C-11.4805627 13.1396313 -8.67081346 9.93920644 -5.375 6.1875 C-4.859375 5.59001953 -4.34375 4.99253906 -3.8125 4.37695312 C-2.54753728 2.91287591 -1.27456166 1.45572845 0 0 Z " fill="#EBF5F7" transform="translate(127,102)"/>
<path d="M0 0 C6.03105563 1.29042857 11.05006145 3.2688285 16.5 6.125 C17.22703125 6.49753906 17.9540625 6.87007812 18.703125 7.25390625 C20.47255118 8.16190126 22.2368367 9.07990265 24 10 C24 10.66 24 11.32 24 12 C25.32 12.66 26.64 13.32 28 14 C28 14.66 28 15.32 28 16 C20.25 16.125 20.25 16.125 18 15 C17 12 17 12 16 8 C10.72 8 5.44 8 0 8 C0 5.36 0 2.72 0 0 Z " fill="#16DAE8" transform="translate(144,16)"/>
<path d="M0 0 C2.89932357 2.39509338 3.50168276 4.31245243 4 8 C6.31 6.02 8.62 4.04 11 2 C15.53786224 4.26893112 16.94678157 6.09866534 20 10 C19.01 10.495 19.01 10.495 18 11 C18 10.34 18 9.68 18 9 C17.22076172 9.45052734 17.22076172 9.45052734 16.42578125 9.91015625 C10.62837106 13.0714058 10.62837106 13.0714058 7.25 12.6875 C6.5075 12.460625 5.765 12.23375 5 12 C2.76832815 12.36856864 2.76832815 12.36856864 1 13 C1 12.34 1 11.68 1 11 C0.01 10.34 -0.98 9.68 -2 9 C-1.41196203 5.97580475 -0.77321882 2.98241547 0 0 Z " fill="#103E67" transform="translate(154,171)"/>
<path d="M0 0 C8.25 0 16.5 0 25 0 C25 0.99 25 1.98 25 3 C28.465 2.505 28.465 2.505 32 2 C32 2.33 32 2.66 32 3 C36.29 3.33 40.58 3.66 45 4 C40.22171935 6.38914033 36.97946217 6.34493534 31.75 6.3125 C30.42440063 6.30839111 30.42440063 6.30839111 29.07202148 6.30419922 C19.18538179 6.14959552 9.13646596 4.98745194 0 1 C0 0.67 0 0.34 0 0 Z " fill="#111C52" transform="translate(81,208)"/>
<path d="M0 0 C1.32 0 2.64 0 4 0 C4 0.66 4 1.32 4 2 C4.66 2 5.32 2 6 2 C6 4.64 6 7.28 6 10 C6.99 10 7.98 10 9 10 C9 10.66 9 11.32 9 12 C10.32 12 11.64 12 13 12 C13 13.32 13 14.64 13 16 C13.99 16 14.98 16 16 16 C15.67 16.99 15.34 17.98 15 19 C12.36328125 19.359375 12.36328125 19.359375 9 19 C6.75729436 17.11577175 5.05227671 15.44987376 3.1875 13.25 C2.69830078 12.71117187 2.20910156 12.17234375 1.70507812 11.6171875 C-0.69245812 8.8979901 -2.59793618 6.68111762 -3 3 C-2.01 3.33 -1.02 3.66 0 4 C0 2.68 0 1.36 0 0 Z " fill="#0A3E6C" transform="translate(34,168)"/>
<path d="M0 0 C2.97 0.33 5.94 0.66 9 1 C7.01648916 3.34889441 5.0137157 5.67709173 3 8 C2.18015625 8.96164063 1.3603125 9.92328125 0.515625 10.9140625 C-0.36378699 11.92256996 -1.2439962 12.9303828 -2.125 13.9375 C-2.95257813 14.89527344 -3.78015625 15.85304688 -4.6328125 16.83984375 C-7 19 -7 19 -11 19 C-11.33 19.99 -11.66 20.98 -12 22 C-13.32 21.67 -14.64 21.34 -16 21 C-15.34 19.35 -14.68 17.7 -14 16 C-11.69 16 -9.38 16 -7 16 C-7.33 15.34 -7.66 14.68 -8 14 C-8.039992 12.00039988 -8.04346799 9.99952758 -8 8 C-5.36 8 -2.72 8 0 8 C0 5.36 0 2.72 0 0 Z " fill="#0491B1" transform="translate(96,88)"/>
<path d="M0 0 C3.96 0 7.92 0 12 0 C11.34 0.66 10.68 1.32 10 2 C9.54496094 2.45890625 9.08992188 2.9178125 8.62109375 3.390625 C7.46179807 4.54154023 6.28522025 5.6751513 5.09765625 6.796875 C0.25665028 11.44275405 -3.50285754 16.27740325 -7 22 C-7.93619813 18.84493858 -8.1057123 16.03413498 -8.0625 12.75 C-8.05347656 11.85796875 -8.04445313 10.9659375 -8.03515625 10.046875 C-8.02355469 9.37140625 -8.01195313 8.6959375 -8 8 C-5.03 8 -2.06 8 1 8 C0.835 6.865625 0.67 5.73125 0.5 4.5625 C0 1 0 1 0 0 Z " fill="#2291A7" transform="translate(32,96)"/>
<path d="M0 0 C0.95777344 -0.01611328 1.91554687 -0.03222656 2.90234375 -0.04882812 C3.81628906 -0.04947266 4.73023438 -0.05011719 5.671875 -0.05078125 C6.91855957 -0.05525269 6.91855957 -0.05525269 8.19042969 -0.05981445 C8.87008789 0.06304932 9.54974609 0.18591309 10.25 0.3125 C10.91 1.3025 11.57 2.2925 12.25 3.3125 C9.15783794 4.34322069 7.39658446 4.29584335 4.1875 4.125 C-1.79185003 4.04538149 -6.46138107 5.60289894 -11.75 8.3125 C-12.08 8.6425 -12.41 8.9725 -12.75 9.3125 C-14.41617115 9.35313832 -16.08388095 9.355221 -17.75 9.3125 C-17.42 7.0025 -17.09 4.6925 -16.75 2.3125 C-11.16499832 -0.03957285 -5.95403519 -0.02036264 0 0 Z " fill="#0CB8D0" transform="translate(145.75,55.6875)"/>
<path d="M0 0 C0 3 0 3 -2.0625 5.5 C-2.701875 6.325 -3.34125 7.15 -4 8 C-3.67 8.99 -3.34 9.98 -3 11 C-4.423125 11.3403125 -4.423125 11.3403125 -5.875 11.6875 C-9.14140917 12.66525174 -9.14140917 12.66525174 -10.1875 15.3125 C-10.455625 16.199375 -10.72375 17.08625 -11 18 C-12 20.8125 -12 20.8125 -14 23 C-17.36955222 23.43548332 -20.62141116 23.28524671 -24 23 C-24.33 22.34 -24.66 21.68 -25 21 C-24.46632812 20.67128906 -23.93265625 20.34257812 -23.3828125 20.00390625 C-14.62671022 14.41393784 -7.22835839 7.41857835 0 0 Z " fill="#126A8E" transform="translate(155,121)"/>
<path d="M0 0 C0 2.31 0 4.62 0 7 C-2.31 7.33 -4.62 7.66 -7 8 C-7.0825 8.99 -7.165 9.98 -7.25 11 C-7.89941307 15.42863637 -9.39618876 19.34267303 -12 23 C-14.75 24.5 -14.75 24.5 -17 25 C-17.86817094 19.50158407 -15.77848045 16.09998477 -12.92578125 11.61328125 C-4.367713 0 -4.367713 0 0 0 Z " fill="#1182A2" transform="translate(48,105)"/>
<path d="M0 0 C0.33 0 0.66 0 1 0 C1.41838877 10.78513264 0.45027804 20.47954015 -2 31 C-2.14598633 31.65613281 -2.29197266 32.31226563 -2.44238281 32.98828125 C-2.9140625 34.90625 -2.9140625 34.90625 -4 38 C-5.485 38.495 -5.485 38.495 -7 39 C-7 38.01 -7 37.02 -7 36 C-6.34 36 -5.68 36 -5 36 C-5.01160156 34.87722656 -5.02320313 33.75445312 -5.03515625 32.59765625 C-5.08951251 24.98693084 -5.09817735 17.5499693 -4 10 C-3.67 10.66 -3.34 11.32 -3 12 C-2.34 12 -1.68 12 -1 12 C-1.01160156 11.21753906 -1.02320313 10.43507813 -1.03515625 9.62890625 C-1.04417969 8.61699219 -1.05320313 7.60507813 -1.0625 6.5625 C-1.07410156 5.55316406 -1.08570313 4.54382813 -1.09765625 3.50390625 C-1 1 -1 1 0 0 Z " fill="#146F8B" transform="translate(213,108)"/>
<path d="M0 0 C0.33 0.66 0.66 1.32 1 2 C0.0625 4.125 0.0625 4.125 -1 6 C-1.66 6 -2.32 6 -3 6 C-3 6.99 -3 7.98 -3 9 C-3.62641409 13.74147282 -6.68222181 16.11090909 -10.08984375 19.203125 C-12.1952495 21.04806723 -12.1952495 21.04806723 -14 24 C-14.66 24 -15.32 24 -16 24 C-17 21 -17 21 -15.7421875 18.4765625 C-12.49641022 13.51962231 -9.44519483 8.97727958 -5 5 C-3.6078125 3.6078125 -3.6078125 3.6078125 -2.1875 2.1875 C-1.465625 1.465625 -0.74375 0.74375 0 0 Z " fill="#15C8DC" transform="translate(43,38)"/>
<path d="M0 0 C1.2380014 3.57644848 0.74926071 6.33694766 0 10 C-0.66 10 -1.32 10 -2 10 C-2.33 11.65 -2.66 13.3 -3 15 C-3.99 15.33 -4.98 15.66 -6 16 C-6.66 16.99 -7.32 17.98 -8 19 C-8.66 19 -9.32 19 -10 19 C-10 19.66 -10 20.32 -10 21 C-10.99 20.67 -11.98 20.34 -13 20 C-13 19.34 -13 18.68 -13 18 C-12.34 18 -11.68 18 -11 18 C-11 17.01 -11 16.02 -11 15 C-10.37358591 10.25852718 -7.31777819 7.88909091 -3.91015625 4.796875 C-1.8047505 2.95193277 -1.8047505 2.95193277 0 0 Z " fill="#0788AC" transform="translate(143,97)"/>
<path d="M0 0 C9.30329374 4.9423748 15.60332673 12.84784873 22 21 C23.33221258 22.66756265 24.66520069 24.33450717 26 26 C25.67 26.66 25.34 27.32 25 28 C24 27 23 26 22 25 C21.13375 24.175 20.2675 23.35 19.375 22.5 C17 20 17 20 16 17 C14.35 17 12.7 17 11 17 C10.87625 16.195625 10.7525 15.39125 10.625 14.5625 C10.41875 13.716875 10.2125 12.87125 10 12 C9.34 11.67 8.68 11.34 8 11 C8 10.34 8 9.68 8 9 C6.35 9 4.7 9 3 9 C1.76078698 6.02588876 0.69941596 3.14737182 0 0 Z " fill="#17D0E2" transform="translate(173,31)"/>
<path d="M0 0 C-0.99 0 -1.98 0 -3 0 C-3 0.66 -3 1.32 -3 2 C-4.03060547 2.19916016 -4.03060547 2.19916016 -5.08203125 2.40234375 C-6.43361328 2.66724609 -6.43361328 2.66724609 -7.8125 2.9375 C-8.70582031 3.11152344 -9.59914063 3.28554688 -10.51953125 3.46484375 C-13.11397171 3.97741153 -13.11397171 3.97741153 -16 5 C-16 6.98 -16 8.96 -16 11 C-20.66666667 11 -25.33333333 11 -30 11 C-30.33 10.34 -30.66 9.68 -31 9 C-26.57894021 6.01690107 -21.96780445 4.49086858 -16.9375 2.875 C-15.73383789 2.47861328 -15.73383789 2.47861328 -14.50585938 2.07421875 C-4.11594369 -1.3229819 -4.11594369 -1.3229819 0 0 Z " fill="#3CE4E9" transform="translate(96,13)"/>
<path d="M0 0 C4.62 0 9.24 0 14 0 C12.515 2.475 12.515 2.475 11 5 C11.7425 5.0825 12.485 5.165 13.25 5.25 C16.51221354 6.1396946 17.80954878 7.48503749 20 10 C17.30662077 11.03932752 16.15900123 11.05402724 13.37890625 10.109375 C12.44949219 9.66078125 11.52007812 9.2121875 10.5625 8.75 C9.63566406 8.31171875 8.70882812 7.8734375 7.75390625 7.421875 C2.22737612 4.56846086 2.22737612 4.56846086 0 3 C0 2.01 0 1.02 0 0 Z " fill="#0D5F85" transform="translate(144,144)"/>
<path d="M0 0 C0.33 0 0.66 0 1 0 C1 2.64 1 5.28 1 8 C1.66 8 2.32 8 3 8 C3 20 3 20 2 23 C1.34 23 0.68 23 0 23 C0 23.66 0 24.32 0 25 C-1.65 25.33 -3.3 25.66 -5 26 C-4.26718127 22.202026 -3.40092442 18.44885945 -2.5 14.6875 C-1.35804095 9.78543189 -0.49081028 5.00626486 0 0 Z " fill="#06759E" transform="translate(189,104)"/>
<path d="M0 0 C1.32 0.66 2.64 1.32 4 2 C0.48412068 4.34391955 -2.95024329 5.21805677 -7 6.1875 C-8.13489868 6.45965332 -8.13489868 6.45965332 -9.29272461 6.73730469 C-15.38547889 8.08678922 -20.84343912 8.22333391 -27 7 C-27 6.01 -27 5.02 -27 4 C-22.38 3.67 -17.76 3.34 -13 3 C-13 3.66 -13 4.32 -13 5 C-12.15695313 4.50886719 -12.15695313 4.50886719 -11.296875 4.0078125 C-8.73140036 2.88214506 -7.03157723 2.7931889 -4.25 2.875 C-3.45078125 2.89304688 -2.6515625 2.91109375 -1.828125 2.9296875 C-1.22484375 2.95289063 -0.6215625 2.97609375 0 3 C0 2.01 0 1.02 0 0 Z " fill="#0C1A4F" transform="translate(144,205)"/>
<path d="M0 0 C2.0625 0.4375 2.0625 0.4375 4 1 C5.56659619 7.02536998 5.56659619 7.02536998 3.953125 9.80078125 C2.70838944 11.26579304 1.35934288 12.64065712 0 14 C-0.061875 13.071875 -0.061875 13.071875 -0.125 12.125 C-0.41375 11.42375 -0.7025 10.7225 -1 10 C-3.99615946 8.6954344 -3.99615946 8.6954344 -7 8 C-6.02133662 6.85373678 -5.04205413 5.70800212 -4.0625 4.5625 C-3.51722656 3.92441406 -2.97195312 3.28632812 -2.41015625 2.62890625 C-1.63204305 1.73008851 -0.84063472 0.84063472 0 0 Z " fill="#EEF8F7" transform="translate(103,91)"/>
<path d="M0 0 C2.97 0.495 2.97 0.495 6 1 C6.33 1.99 6.66 2.98 7 4 C6.67 4.66 6.34 5.32 6 6 C13.68636026 4.64774477 13.68636026 4.64774477 21 2 C21.66 2.66 22.32 3.32 23 4 C16.53606157 6.66162171 11.03806757 8.86432409 4 8 C1.5 6.8125 1.5 6.8125 0 5 C-0.25 2.3125 -0.25 2.3125 0 0 Z " fill="#106B8F" transform="translate(32,128)"/>
<path d="M0 0 C1.0625 1.8125 1.0625 1.8125 2 4 C1.67 4.99 1.34 5.98 1 7 C0.96125079 8.66621616 0.9549714 10.33394172 1 12 C0.34 12 -0.32 12 -1 12 C-1.02505615 12.60996826 -1.0501123 13.21993652 -1.07592773 13.84838867 C-1.1924058 16.62827898 -1.31489632 19.4078734 -1.4375 22.1875 C-1.49647461 23.62706055 -1.49647461 23.62706055 -1.55664062 25.09570312 C-1.59853516 26.02705078 -1.64042969 26.95839844 -1.68359375 27.91796875 C-1.72025146 28.77156982 -1.75690918 29.6251709 -1.79467773 30.50463867 C-2.00531094 33.06454594 -2.44841536 35.49333243 -3 38 C-3.33 38 -3.66 38 -4 38 C-4.47387606 11.82381531 -4.47387606 11.82381531 0 0 Z " fill="#419AAD" transform="translate(15,84)"/>
<path d="M0 0 C0.66 0.33 1.32 0.66 2 1 C1.34 1.66 0.68 2.32 0 3 C-0.40047444 5.32275177 -0.7397104 7.65739357 -1 10 C-3.31 10.33 -5.62 10.66 -8 11 C-8.33 13.31 -8.66 15.62 -9 18 C-10.98 18 -12.96 18 -15 18 C-15 15 -15 15 -13.62304688 13.2824707 C-12.99462891 12.66976318 -12.36621094 12.05705566 -11.71875 11.42578125 C-11.04199219 10.75869141 -10.36523438 10.09160156 -9.66796875 9.40429688 C-8.95253906 8.71400391 -8.23710938 8.02371094 -7.5 7.3125 C-6.42685547 6.2596582 -6.42685547 6.2596582 -5.33203125 5.18554688 C-3.56120423 3.45013639 -1.78376544 1.7220927 0 0 Z " fill="#1581A0" transform="translate(105,102)"/>
<path d="M0 0 C1.77074917 -0.02705729 3.54161711 -0.04642195 5.3125 -0.0625 C6.29863281 -0.07410156 7.28476563 -0.08570313 8.30078125 -0.09765625 C11 0 11 0 14 1 C14 3.31 14 5.62 14 8 C9.30943359 7.4136792 4.91031269 5.64951093 1 3 C0.67 2.01 0.34 1.02 0 0 Z " fill="#152757" transform="translate(66,200)"/>
<path d="M0 0 C0.66 0 1.32 0 2 0 C2 1.98 2 3.96 2 6 C4.90073181 6.67801034 4.90073181 6.67801034 8 7 C8.66 6.34 9.32 5.68 10 5 C13.125 4.875 13.125 4.875 16 5 C16.33 5.66 16.66 6.32 17 7 C11.86674708 9.39551803 5.69458831 11 0 11 C-1.82941851 7.23355012 -2.23162684 5.03077875 -1 1 C-0.67 0.67 -0.34 0.34 0 0 Z " fill="#087199" transform="translate(38,123)"/>
<path d="M0 0 C1.75 1.4375 1.75 1.4375 3 3 C3.99 2.34 4.98 1.68 6 1 C8.1875 1.375 8.1875 1.375 10 2 C5.06930548 6.18788859 1.55327899 8.72694671 -5 9 C-5.33 7.35 -5.66 5.7 -6 4 C-5.34 3.67 -4.68 3.34 -4 3 C-4 2.34 -4 1.68 -4 1 C-2.1875 0.3125 -2.1875 0.3125 0 0 Z " fill="#0C6F92" transform="translate(125,127)"/>
<path d="M0 0 C0.66 0.99 1.32 1.98 2 3 C1.34 3.66 0.68 4.32 0 5 C-3.625 4.625 -3.625 4.625 -7 4 C-7 4.66 -7 5.32 -7 6 C-7.66 6 -8.32 6 -9 6 C-9 5.01 -9 4.02 -9 3 C-11.31 3 -13.62 3 -16 3 C-16.33 3.66 -16.66 4.32 -17 5 C-17.66 4.34 -18.32 3.68 -19 3 C-12.75400766 -0.03823845 -6.87978475 -2.47612943 0 0 Z " fill="#DEF6F8" transform="translate(153,60)"/>
<path d="M0 0 C13.94309405 -0.45405867 26.66919986 -0.3913224 40 4 C40 4.33 40 4.66 40 5 C37.39576408 5.02697137 34.79180756 5.04682489 32.1875 5.0625 C31.44951172 5.07087891 30.71152344 5.07925781 29.95117188 5.08789062 C26.70077932 5.10259828 24.10595105 5.03531702 21 4 C21 3.34 21 2.68 21 2 C14.07 1.67 7.14 1.34 0 1 C0 0.67 0 0.34 0 0 Z " fill="#2DE4EC" transform="translate(104,11)"/>
<path d="M0 0 C-0.33 1.65 -0.66 3.3 -1 5 C-1.66 5 -2.32 5 -3 5 C-3 5.66 -3 6.32 -3 7 C-6.3 7 -9.6 7 -13 7 C-13 7.99 -13 8.98 -13 10 C-14.32 10 -15.64 10 -17 10 C-17 9.34 -17 8.68 -17 8 C-6.01835486 -2.00611829 -6.01835486 -2.00611829 0 0 Z " fill="#0ADBEB" transform="translate(65,25)"/>
<path d="M0 0 C0.33 0.33 0.66 0.66 1 1 C0.57731286 5.98770821 -0.2327125 10.28723333 -2 15 C-2.33 15 -2.66 15 -3 15 C-3 12.36 -3 9.72 -3 7 C-4.65 7 -6.3 7 -8 7 C-8 6.34 -8 5.68 -8 5 C-6.02 4.67 -4.04 4.34 -2 4 C-1.67 3.01 -1.34 2.02 -1 1 C-1.54269531 1.2165625 -2.08539063 1.433125 -2.64453125 1.65625 C-3.35996094 1.9346875 -4.07539063 2.213125 -4.8125 2.5 C-5.87404297 2.91765625 -5.87404297 2.91765625 -6.95703125 3.34375 C-9 4 -9 4 -12 4 C-5.3996224 -1.38451857 -5.3996224 -1.38451857 0 0 Z " fill="#0D829E" transform="translate(179,105)"/>
<path d="M0 0 C0.8723412 2.99480917 1.10829766 5.63575911 1.0625 8.75 C1.05347656 9.54921875 1.04445312 10.3484375 1.03515625 11.171875 C1.02355469 11.77515625 1.01195312 12.3784375 1 13 C0.401875 13.144375 -0.19625 13.28875 -0.8125 13.4375 C-4.81657812 14.46712009 -6.58758018 15.38482022 -9.1875 18.5625 C-9.98220703 19.52349609 -9.98220703 19.52349609 -10.79296875 20.50390625 C-11.19128906 20.99761719 -11.58960938 21.49132812 -12 22 C-12.66 21.67 -13.32 21.34 -14 21 C-13.24074219 20.07058594 -12.48148438 19.14117187 -11.69921875 18.18359375 C-10.69489641 16.93523047 -9.69101346 15.6865136 -8.6875 14.4375 C-8.18798828 13.82841797 -7.68847656 13.21933594 -7.17382812 12.59179688 C-3.95900449 8.56794478 -1.81862443 4.82276853 0 0 Z " fill="#189CB4" transform="translate(159,74)"/>
<path d="M0 0 C0.66 1.32 1.32 2.64 2 4 C1.52949219 4.65226562 1.05898437 5.30453125 0.57421875 5.9765625 C-2.66443932 10.52275333 -5.71777926 14.8985654 -8 20 C-8.33 20 -8.66 20 -9 20 C-9 18.02 -9 16.04 -9 14 C-8.34 14 -7.68 14 -7 14 C-7 13.21625 -7 12.4325 -7 11.625 C-7 9.08333333 -7 6.54166667 -7 4 C-4.92446352 3.4465236 -3.15634036 3 -1 3 C-0.67 2.01 -0.34 1.02 0 0 Z " fill="#177F9A" transform="translate(119,106)"/>
<path d="M0 0 C2.64 0.66 5.28 1.32 8 2 C8 2.99 8 3.98 8 5 C9.32 5.33 10.64 5.66 12 6 C11.67 6.66 11.34 7.32 11 8 C7.37 8 3.74 8 0 8 C0 5.36 0 2.72 0 0 Z " fill="#19E5F1" transform="translate(144,16)"/>
<path d="M0 0 C4.66666667 0 9.33333333 0 14 0 C14 0.66 14 1.32 14 2 C11.8125 3.5078125 11.8125 3.5078125 9 5.125 C8.071875 5.66382813 7.14375 6.20265625 6.1875 6.7578125 C5.465625 7.16773438 4.74375 7.57765625 4 8 C3.01 7.34 2.02 6.68 1 6 C1 5.34 1 4.68 1 4 C0.68521554 2.66216607 0.35412344 1.32796291 0 0 Z " fill="#0C295C" transform="translate(160,192)"/>
<path d="M0 0 C0.66 0 1.32 0 2 0 C2.33 1.65 2.66 3.3 3 5 C2.01 5.33 1.02 5.66 0 6 C0 8.31 0 10.62 0 13 C-1.32 12.67 -2.64 12.34 -4 12 C-4 12.99 -4 13.98 -4 15 C-5.65 14.67 -7.3 14.34 -9 14 C-7.68 13.34 -6.36 12.68 -5 12 C-5.268125 11.443125 -5.53625 10.88625 -5.8125 10.3125 C-5.874375 9.549375 -5.93625 8.78625 -6 8 C-3.625 5.4375 -3.625 5.4375 -1 3 C-0.67 2.01 -0.34 1.02 0 0 Z " fill="#F8FAF9" transform="translate(149,115)"/>
<path d="M0 0 C1.32 0 2.64 0 4 0 C1.92837757 4.5777803 -1.00238473 7.9618124 -5 11 C-7.49310771 11.8310359 -9.33838424 11.94568131 -12 12 C-11.67 10.02 -11.34 8.04 -11 6 C-9.9275 5.855625 -8.855 5.71125 -7.75 5.5625 C-5.08337051 5.16250558 -2.58600271 4.72408076 0 4 C0 2.68 0 1.36 0 0 Z " fill="#1586A3" transform="translate(84,106)"/>
<path d="M0 0 C2 2 2 2 2.125 4.625 C2.08375 5.40875 2.0425 6.1925 2 7 C-0.31 7.33 -2.62 7.66 -5 8 C-5.66 9.98 -6.32 11.96 -7 14 C-8.32 13.34 -9.64 12.68 -11 12 C-10.67567593 8.93617261 -10.01098513 8.01029035 -7.71484375 5.859375 C-6.79832031 5.16328125 -5.88179688 4.4671875 -4.9375 3.75 C-4.01839844 3.04359375 -3.09929687 2.3371875 -2.15234375 1.609375 C-1.44207031 1.07828125 -0.73179688 0.5471875 0 0 Z " fill="#107495" transform="translate(86,121)"/>
<path d="M0 0 C1.32830615 3.98491845 0.23204404 5.40048548 -1.4375 9.1875 C-1.91058594 10.27417969 -2.38367188 11.36085937 -2.87109375 12.48046875 C-3.42990234 13.72763672 -3.42990234 13.72763672 -4 15 C-6.45976489 11.31035266 -7.12465307 9.72571521 -7.0625 5.375 C-7.05347656 4.55773437 -7.04445312 3.74046875 -7.03515625 2.8984375 C-7.02355469 2.27195313 -7.01195312 1.64546875 -7 1 C-6.67 1.66 -6.34 2.32 -6 3 C-2.99740483 3.33218192 -2.99740483 3.33218192 -1.3125 1.5 C-0.879375 1.005 -0.44625 0.51 0 0 Z " fill="#115E84" transform="translate(207,145)"/>
<path d="M0 0 C0.66 0 1.32 0 2 0 C2.3690205 17.85649203 2.3690205 17.85649203 0 26 C-0.33 26 -0.66 26 -1 26 C-1.02886751 21.85418113 -1.04675327 17.70838784 -1.0625 13.5625 C-1.07087891 12.37849609 -1.07925781 11.19449219 -1.08789062 9.97460938 C-1.09111328 8.84990234 -1.09433594 7.72519531 -1.09765625 6.56640625 C-1.10289307 5.52427979 -1.10812988 4.48215332 -1.11352539 3.40844727 C-1 1 -1 1 0 0 Z " fill="#0383A5" transform="translate(14,98)"/>
<path d="M0 0 C-0.33 0.99 -0.66 1.98 -1 3 C-0.01 3.33 0.98 3.66 2 4 C2.33 3.34 2.66 2.68 3 2 C3.66 2.33 4.32 2.66 5 3 C5 3.99 5 4.98 5 6 C0.05 5.67 -4.9 5.34 -10 5 C-10.33 3.35 -10.66 1.7 -11 0 C-6.98195309 -0.84098656 -3.98196457 -1.05404945 0 0 Z " fill="#0599B9" transform="translate(179,89)"/>
<path d="M0 0 C1.4384798 0.06423833 2.87666999 0.14163547 4.3125 0.25 C4.6425 2.23 4.9725 4.21 5.3125 6.25 C-0.16082932 7.71845421 -2.80672548 6.69038726 -7.6875 4.25 C-5.84004374 0.30875998 -4.09551026 -0.02575793 0 0 Z " fill="#175B81" transform="translate(170.6875,151.75)"/>
<path d="M0 0 C1.32 0 2.64 0 4 0 C2.40768051 4.29926263 -0.39313359 6.35005733 -4 9 C-4.99 9 -5.98 9 -7 9 C-7.33 9.99 -7.66 10.98 -8 12 C-9.32 11.67 -10.64 11.34 -12 11 C-11.34 9.35 -10.68 7.7 -10 6 C-7.69 6 -5.38 6 -3 6 C-3.33 4.68 -3.66 3.36 -4 2 C-3.34 1.67 -2.68 1.34 -2 1 C-1.34 1.33 -0.68 1.66 0 2 C0 1.34 0 0.68 0 0 Z " fill="#1990AA" transform="translate(92,98)"/>
<path d="M0 0 C5.38092281 4.70437404 8.43266196 13.00283083 9 20 C8.34 20 7.68 20 7 20 C7 18.68 7 17.36 7 16 C6.01 15.67 5.02 15.34 4 15 C4 13.68 4 12.36 4 11 C3.34 12.65 2.68 14.3 2 16 C1.34 15.67 0.68 15.34 0 15 C0 12.69 0 10.38 0 8 C0.66 8 1.32 8 2 8 C2 6.68 2 5.36 2 4 C1.34 4 0.68 4 0 4 C0 2.68 0 1.36 0 0 Z " fill="#0FAAC0" transform="translate(201,64)"/>
<path d="M0 0 C-3.42346555 3.14958831 -6.44262737 3.56179109 -11 4 C-11 4.33 -11 4.66 -11 5 C-13.31 5 -15.62 5 -18 5 C-18 3.68 -18 2.36 -18 1 C-15.07013861 -0.46493069 -12.2555884 -0.39150493 -9 -0.625 C-7.741875 -0.72039062 -6.48375 -0.81578125 -5.1875 -0.9140625 C-2 -1 -2 -1 0 0 Z " fill="#1D6A8C" transform="translate(50,144)"/>
<path d="M0 0 C0.33 4.95 0.66 9.9 1 15 C-0.32 15.33 -1.64 15.66 -3 16 C-4.44207941 13.11584117 -4.09394887 10.58278472 -4.0625 7.375 C-4.05347656 6.18648438 -4.04445313 4.99796875 -4.03515625 3.7734375 C-4.02355469 2.85820313 -4.01195313 1.94296875 -4 1 C-2 0 -2 0 0 0 Z " fill="#187799" transform="translate(23,120)"/>
<path d="M0 0 C1.98 0 3.96 0 6 0 C5.34 4.29 4.68 8.58 4 13 C3.67 13 3.34 13 3 13 C3 11.35 3 9.7 3 8 C-0.27773504 8.75150023 -0.27773504 8.75150023 -2 12 C-1.85962479 10.18706911 -1.71255111 8.3746557 -1.5625 6.5625 C-1.48128906 5.55316406 -1.40007812 4.54382813 -1.31640625 3.50390625 C-1 1 -1 1 0 0 Z " fill="#04759C" transform="translate(170,120)"/>
<path d="M0 0 C3.3 0 6.6 0 10 0 C10 1.98 10 3.96 10 6 C7.35261084 7.4606285 6.10551666 8 3 8 C2.01 5.36 1.02 2.72 0 0 Z " fill="#1393AB" transform="translate(46,96)"/>
<path d="M0 0 C0.67611328 -0.020625 1.35222656 -0.04125 2.04882812 -0.0625 C4.01171875 -0.078125 4.01171875 -0.078125 7.3125 0.25 C7.9725 1.24 8.6325 2.23 9.3125 3.25 C5.39263771 4.55662076 1.80873058 4.1833816 -2.25 3.9375 C-3.03052734 3.90205078 -3.81105469 3.86660156 -4.61523438 3.83007812 C-10.44439675 3.49310325 -10.44439675 3.49310325 -12.6875 1.25 C-8.43595537 0.23028717 -4.36579281 0.05131196 0 0 Z " fill="#05BFD6" transform="translate(148.6875,55.75)"/>
<path d="M0 0 C1.65 0 3.3 0 5 0 C5 0.33 5 0.66 5 1 C9.29 1.33 13.58 1.66 18 2 C14.32118765 3.83940617 13.18199253 4.25476161 9.33984375 4.265625 C8.46392578 4.26820313 7.58800781 4.27078125 6.68554688 4.2734375 C5.77869141 4.26570312 4.87183594 4.25796875 3.9375 4.25 C3.02677734 4.25773438 2.11605469 4.26546875 1.17773438 4.2734375 C0.30310547 4.27085937 -0.57152344 4.26828125 -1.47265625 4.265625 C-2.26937744 4.26336914 -3.06609863 4.26111328 -3.88696289 4.25878906 C-6 4 -6 4 -9 2 C-4.545 1.505 -4.545 1.505 0 1 C0 0.67 0 0.34 0 0 Z " fill="#2A325E" transform="translate(108,210)"/>
<path d="M0 0 C2.31 0 4.62 0 7 0 C7 0.99 7 1.98 7 3 C6.34 3.66 5.68 4.32 5 5 C4.855625 5.598125 4.71125 6.19625 4.5625 6.8125 C3.85636875 9.55856596 2.51867268 11.6229471 1 14 C0.06380187 10.84493858 -0.1057123 8.03413498 -0.0625 4.75 C-0.05347656 3.85796875 -0.04445313 2.9659375 -0.03515625 2.046875 C-0.02355469 1.37140625 -0.01195313 0.6959375 0 0 Z " fill="#10839E" transform="translate(24,104)"/>
<path d="M0 0 C-2.74423966 2.94751667 -5.36219655 5.22773678 -9 7 C-9.99 6.67 -10.98 6.34 -12 6 C-11.67 5.01 -11.34 4.02 -11 3 C-11.66 2.67 -12.32 2.34 -13 2 C-8.11922548 -0.44038726 -5.47332932 -1.46845421 0 0 Z " fill="#EBF5F6" transform="translate(76,129)"/>
<path d="M0 0 C0.66 0 1.32 0 2 0 C1.67 3.63 1.34 7.26 1 11 C-0.423125 10.9690625 -0.423125 10.9690625 -1.875 10.9375 C-4.90666283 10.77448174 -4.90666283 10.77448174 -7 12 C-7 10.68 -7 9.36 -7 8 C-6.34 8 -5.68 8 -5 8 C-5 7.01 -5 6.02 -5 5 C-3.68 5 -2.36 5 -1 5 C-0.67 3.35 -0.34 1.7 0 0 Z " fill="#FAFCF9" transform="translate(156,69)"/>
<path d="M0 0 C1.258125 -0.020625 2.51625 -0.04125 3.8125 -0.0625 C4.52019531 -0.07410156 5.22789063 -0.08570313 5.95703125 -0.09765625 C8 0 8 0 11 1 C11 2.32 11 3.64 11 5 C6.05 5 1.1 5 -4 5 C-4 4.34 -4 3.68 -4 3 C-2.68 2.34 -1.36 1.68 0 1 C0 0.67 0 0.34 0 0 Z " fill="#075C88" transform="translate(37,147)"/>
<path d="M0 0 C3 1 3 1 6 3 C-0.26177547 6.01578157 -6.18204762 8.58495328 -13 10 C-11.49400979 6.98801958 -8.97413004 6.42758242 -6 5 C-5.01 4.34 -4.02 3.68 -3 3 C-2.34 3 -1.68 3 -1 3 C-0.67 2.01 -0.34 1.02 0 0 Z " fill="#E6F3F5" transform="translate(59,134)"/>
<path d="M0 0 C1.4540625 0.0309375 1.4540625 0.0309375 2.9375 0.0625 C2.6075 2.3725 2.2775 4.6825 1.9375 7.0625 C0.9475 7.3925 -0.0425 7.7225 -1.0625 8.0625 C-3.75 6.625 -3.75 6.625 -6.0625 5.0625 C-3.64893617 0.07446809 -3.64893617 0.07446809 0 0 Z " fill="#F7FCFA" transform="translate(174.0625,95.9375)"/>
<path d="M0 0 C0 5.4511942 -2.37806082 9.03850402 -6 13 C-6.66 13 -7.32 13 -8 13 C-9 10 -9 10 -7.375 6.5 C-5.42967535 3.28273232 -3.44396469 1.62631666 0 0 Z " fill="#06BED5" transform="translate(35,49)"/>
<path d="M0 0 C3.04662882 2.56417147 4.20951098 5.40969231 5.6875 9.0625 C6.34298828 10.65771484 6.34298828 10.65771484 7.01171875 12.28515625 C8 15 8 15 8 17 C7.01 16.67 6.02 16.34 5 16 C4.67 14.35 4.34 12.7 4 11 C3.01 11 2.02 11 1 11 C1.33 9.02 1.66 7.04 2 5 C1.34 5 0.68 5 0 5 C-0.5625 3.0625 -0.5625 3.0625 -1 1 C-0.67 0.67 -0.34 0.34 0 0 Z " fill="#175277" transform="translate(145,149)"/>
<path d="M0 0 C0 0.66 0 1.32 0 2 C-5.445 4.475 -5.445 4.475 -11 7 C-11.33 6.34 -11.66 5.68 -12 5 C-11.34 5 -10.68 5 -10 5 C-10 3.68 -10 2.36 -10 1 C-6.1496895 -1.56687367 -4.41430237 -0.83288724 0 0 Z " fill="#05789E" transform="translate(69,121)"/>
<path d="M0 0 C4.08332902 1.55466197 6.08208993 4.25087844 8.75 7.625 C9.54921875 8.62789062 10.3484375 9.63078125 11.171875 10.6640625 C12.07679688 11.82035156 12.07679688 11.82035156 13 13 C12.67 13.66 12.34 14.32 12 15 C11 14 10 13 9 12 C8.13375 11.175 7.2675 10.35 6.375 9.5 C4 7 4 7 3 4 C1.35 4 -0.3 4 -2 4 C-1.34 2.68 -0.68 1.36 0 0 Z " fill="#25C3D3" transform="translate(186,44)"/>
<path d="M0 0 C0.28875 0.639375 0.5775 1.27875 0.875 1.9375 C1.82823451 4.15206079 1.82823451 4.15206079 4 5 C0.27034861 7.03435531 -1.66905042 8 -6 8 C-5.8125 5.6875 -5.8125 5.6875 -5 3 C-2.4375 1.1875 -2.4375 1.1875 0 0 Z " fill="#033665" transform="translate(166,176)"/>
<path d="M0 0 C2.31 0.33 4.62 0.66 7 1 C6.72694671 7.55327899 4.18788859 11.06930548 0 16 C-0.33 14.68 -0.66 13.36 -1 12 C-0.34 12 0.32 12 1 12 C1.103125 11.0925 1.20625 10.185 1.3125 9.25 C2.00414949 5.98038425 2.82134921 4.46282263 5 2 C3.35 1.67 1.7 1.34 0 1 C0 0.67 0 0.34 0 0 Z " fill="#22A7BB" transform="translate(144,68)"/>
<path d="M0 0 C1.32 0.33 2.64 0.66 4 1 C3.67 3.31 3.34 5.62 3 8 C1.35 8.66 -0.3 9.32 -2 10 C-2.17942163 6.05272412 -2.09350689 3.4019487 0 0 Z " fill="#157B9A" transform="translate(33,120)"/>
<path d="M0 0 C0 0.66 0 1.32 0 2 C0.66 2.33 1.32 2.66 2 3 C1.34 5.31 0.68 7.62 0 10 C-1.65 8.68 -3.3 7.36 -5 6 C-4.625 3.5625 -4.625 3.5625 -4 1 C-2 0 -2 0 0 0 Z " fill="#174C73" transform="translate(177,164)"/>
<path d="M0 0 C0.33 0.66 0.66 1.32 1 2 C1.66 2 2.32 2 3 2 C3.1799928 7.21979128 2.97094808 11.07262981 1 16 C0.34 15.34 -0.32 14.68 -1 14 C-0.9765625 10.7421875 -0.9765625 10.7421875 -0.625 6.875 C-0.51414063 5.59367187 -0.40328125 4.31234375 -0.2890625 2.9921875 C-0.19367188 2.00476563 -0.09828125 1.01734375 0 0 Z " fill="#06759F" transform="translate(209,118)"/>
<path d="M0 0 C2.4932534 0.99730136 3.77467439 1.65074531 5.25 3.9375 C6 6 6 6 6 9 C6.66 9 7.32 9 8 9 C7.67 9.99 7.34 10.98 7 12 C5.125 11.3125 5.125 11.3125 3 10 C1.875 7.5 1.875 7.5 1 5 C0.34 4.34 -0.32 3.68 -1 3 C-0.67 2.01 -0.34 1.02 0 0 Z " fill="#05C0DB" transform="translate(191,52)"/>
<path d="M0 0 C0 1.65 0 3.3 0 5 C-4.66666667 5 -9.33333333 5 -14 5 C-11 3 -11 3 -9 3 C-8.67 2.34 -8.34 1.68 -8 1 C-8 1.66 -8 2.32 -8 3 C-7.34 3 -6.68 3 -6 3 C-6 2.34 -6 1.68 -6 1 C-4 0 -4 0 0 0 Z " fill="#06E6F7" transform="translate(80,19)"/>
<path d="M0 0 C1.65 0.33 3.3 0.66 5 1 C4.67 1.66 4.34 2.32 4 3 C3.01 3.33 2.02 3.66 1 4 C1.33 4.66 1.66 5.32 2 6 C1.01 6 0.02 6 -1 6 C-1 6.66 -1 7.32 -1 8 C-0.01 8.33 0.98 8.66 2 9 C0.35 9 -1.3 9 -3 9 C-3.33 9.99 -3.66 10.98 -4 12 C-3.5317879 7.22423661 -2.75668002 3.95523655 0 0 Z " fill="#1C7999" transform="translate(122,122)"/>
<path d="M0 0 C2.5 2.3125 2.5 2.3125 5 5 C5 5.99 5 6.98 5 8 C4.01 8.33 3.02 8.66 2 9 C1.34 9.66 0.68 10.32 0 11 C0 10.01 0 9.02 0 8 C-0.185625 6.989375 -0.37125 5.97875 -0.5625 4.9375 C-1 2 -1 2 0 0 Z " fill="#EFF4F5" transform="translate(33,176)"/>
<path d="M0 0 C0.61875 0.639375 1.2375 1.27875 1.875 1.9375 C3.82597612 4.03883584 3.82597612 4.03883584 6 5 C5.01 6.485 5.01 6.485 4 8 C3.236875 7.79375 2.47375 7.5875 1.6875 7.375 C-1.21885944 6.66608797 -1.21885944 6.66608797 -4 9 C-2.94124926 5.59687262 -1.99097846 2.98646769 0 0 Z " fill="#EBF3F4" transform="translate(203,158)"/>
<path d="M0 0 C0.33 0 0.66 0 1 0 C1 2.64 1 5.28 1 8 C1.66 8 2.32 8 3 8 C3 9.98 3 11.96 3 14 C2.34 14 1.68 14 1 14 C0.67 14.66 0.34 15.32 0 16 C-1.98937234 11.969679 -2.07167896 9.55274185 -1.125 5.1875 C-0.92132813 4.21167969 -0.71765625 3.23585938 -0.5078125 2.23046875 C-0.34023437 1.49441406 -0.17265625 0.75835937 0 0 Z " fill="#0A82A1" transform="translate(189,104)"/>
<path d="M0 0 C-0.66 1.65 -1.32 3.3 -2 5 C-4.64 4.67 -7.28 4.34 -10 4 C-10 2.68 -10 1.36 -10 0 C-2.25 -1.125 -2.25 -1.125 0 0 Z " fill="#1D6C91" transform="translate(130,144)"/>
<path d="M0 0 C2.31 0 4.62 0 7 0 C7 0.99 7 1.98 7 3 C4.69 4.32 2.38 5.64 0 7 C0 4.69 0 2.38 0 0 Z " fill="#1091A9" transform="translate(160,96)"/>
<path d="M0 0 C3.63 0 7.26 0 11 0 C11.33 0.99 11.66 1.98 12 3 C8.01803543 4.05404945 5.01804691 3.84098656 1 3 C0.67 2.01 0.34 1.02 0 0 Z " fill="#082156" transform="translate(66,200)"/>
<path d="M0 0 C1.0828125 1.2065625 1.0828125 1.2065625 2.1875 2.4375 C5.02515689 5.02292072 6.27166147 5.68042813 10 6 C8.68 7.32 7.36 8.64 6 10 C3.36 7.36 0.72 4.72 -2 2 C-1.34 1.34 -0.68 0.68 0 0 Z " fill="#284F6E" transform="translate(179,173)"/>
<path d="M0 0 C1.875 0.3125 1.875 0.3125 4 1 C4.66 1.99 5.32 2.98 6 4 C2.49223216 5.60355101 -0.14354879 6.22036864 -4 6 C-3.34 4.68 -2.68 3.36 -2 2 C-1.34 2.33 -0.68 2.66 0 3 C0 2.01 0 1.02 0 0 Z " fill="#0C648C" transform="translate(108,138)"/>
<path d="M0 0 C0.75 1.5625 0.75 1.5625 1 4 C-0.13084437 6.50286409 -1.52139516 8.67007722 -3 11 C-4.65 10.67 -6.3 10.34 -8 10 C-7.04367001 8.70684939 -6.08486149 7.41553147 -5.125 6.125 C-4.59132813 5.40570313 -4.05765625 4.68640625 -3.5078125 3.9453125 C-2 2 -2 2 0 0 Z " fill="#DAF0F1" transform="translate(127,102)"/>
<path d="M0 0 C0.66 0.33 1.32 0.66 2 1 C2 3.97 2 6.94 2 10 C-0.33333333 7.66666667 -2.66666667 5.33333333 -5 3 C-6.31747324 2.30251417 -7.64914193 1.63040043 -9 1 C-7.700625 1.020625 -6.40125 1.04125 -5.0625 1.0625 C-3.70834367 1.08399454 -2.35243917 1.07148199 -1 1 C-0.67 0.67 -0.34 0.34 0 0 Z " fill="#20B6CD" transform="translate(158,58)"/>
<path d="M0 0 C0.33 1.32 0.66 2.64 1 4 C0.360625 4.28875 -0.27875 4.5775 -0.9375 4.875 C-3.15206079 5.82823451 -3.15206079 5.82823451 -4 8 C-4.66 8 -5.32 8 -6 8 C-6.66 6.68 -7.32 5.36 -8 4 C-5.36 2.68 -2.72 1.36 0 0 Z " fill="#EBEFF0" transform="translate(165,199)"/>
<path d="M0 0 C2.9375 0.375 2.9375 0.375 6 1 C6.33 1.66 6.66 2.32 7 3 C6.0625 5.625 6.0625 5.625 5 8 C5.66 8.33 6.32 8.66 7 9 C6.34 9 5.68 9 5 9 C4.67 9.66 4.34 10.32 4 11 C2.68 7.37 1.36 3.74 0 0 Z " fill="#D5EBEE" transform="translate(146,149)"/>
<path d="M0 0 C3 4 3 4 3 6 C3.99 6.33 4.98 6.66 6 7 C5.34 7 4.68 7 4 7 C3.34 8.65 2.68 10.3 2 12 C1.34 11.67 0.68 11.34 0 11 C0 7.37 0 3.74 0 0 Z " fill="#E3F2F2" transform="translate(174,125)"/>
<path d="M0 0 C1.0730756 3.2192268 0.79946725 3.90206442 0 7 C0.33 7.66 0.66 8.32 1 9 C-0.98 9.33 -2.96 9.66 -5 10 C-4.55090939 8.51800098 -4.09043436 7.03944764 -3.625 5.5625 C-3.36976563 4.73878906 -3.11453125 3.91507812 -2.8515625 3.06640625 C-2 1 -2 1 0 0 Z " fill="#FAFBF9" transform="translate(159,106)"/>
<path d="M0 0 C1.17539996 0.92652701 2.34010577 1.86663387 3.5 2.8125 C4.1496875 3.33457031 4.799375 3.85664063 5.46875 4.39453125 C7 6 7 6 7 9 C6.67 8.34 6.34 7.68 6 7 C4.35 7.33 2.7 7.66 1 8 C0.67 6.68 0.34 5.36 0 4 C-0.99 4 -1.98 4 -3 4 C-2.01 2.68 -1.02 1.36 0 0 Z " fill="#19486E" transform="translate(166,173)"/>
<path d="M0 0 C-0.33 1.32 -0.66 2.64 -1 4 C-8.42857143 6.14285714 -8.42857143 6.14285714 -12 7 C-11.67 6.34 -11.34 5.68 -11 5 C-10.34 5 -9.68 5 -9 5 C-8.773125 4.360625 -8.54625 3.72125 -8.3125 3.0625 C-7 1 -7 1 -4.5 0.25 C-2 0 -2 0 0 0 Z " fill="#0788AF" transform="translate(178,106)"/>
<path d="M0 0 C1.43088528 2.86177057 0.59991697 4.93375773 0 8 C-2.375 8.625 -2.375 8.625 -5 9 C-5.66 8.34 -6.32 7.68 -7 7 C-4.69 4.69 -2.38 2.38 0 0 Z " fill="#DAF1F2" transform="translate(103,91)"/>
<path d="M0 0 C0.66 0.33 1.32 0.66 2 1 C0.60667426 4.36720387 -0.9789286 5.9859524 -4 8 C-4.66 6.02 -5.32 4.04 -6 2 C-5.38125 1.855625 -4.7625 1.71125 -4.125 1.5625 C-1.96741678 1.06847775 -1.96741678 1.06847775 0 0 Z " fill="#15A0BB" transform="translate(110,80)"/>
<path d="M0 0 C0.66 0.33 1.32 0.66 2 1 C1.67 1.66 1.34 2.32 1 3 C1.598125 2.649375 2.19625 2.29875 2.8125 1.9375 C5 1 5 1 8 2 C1.375 6 1.375 6 -2 6 C-2 5.34 -2 4.68 -2 4 C-2.99 3.67 -3.98 3.34 -5 3 C-2.625 1.4375 -2.625 1.4375 0 0 Z " fill="#E8E8E8" transform="translate(162,208)"/>
<path d="M0 0 C0 2.64 0 5.28 0 8 C-3.465 6.02 -3.465 6.02 -7 4 C-6.67 3.01 -6.34 2.02 -6 1 C-3 0 -3 0 0 0 Z " fill="#07285C" transform="translate(64,192)"/>
<path d="M0 0 C-0.33 3.3 -0.66 6.6 -1 10 C-2.32 10 -3.64 10 -5 10 C-5 7.03 -5 4.06 -5 1 C-2 0 -2 0 0 0 Z " fill="#017193" transform="translate(20,126)"/>
<path d="M0 0 C-1.45255699 3.82946843 -3.42895561 5.12050295 -7 7 C-7 5.02 -7 3.04 -7 1 C-4.53721199 -0.231394 -2.7204945 -0.07159196 0 0 Z " fill="#1A7C9C" transform="translate(143,120)"/>
<path d="M0 0 C0.66 1.32 1.32 2.64 2 4 C0 7 0 7 -2.5 7.75 C-5 8 -5 8 -7 7 C-7 6.01 -7 5.02 -7 4 C-4.92446352 3.4465236 -3.15634036 3 -1 3 C-0.67 2.01 -0.34 1.02 0 0 Z " fill="#0A81A0" transform="translate(119,106)"/>
<path d="M0 0 C1.0625 1.8125 1.0625 1.8125 2 4 C1.67 4.99 1.34 5.98 1 7 C0.96125079 8.66621616 0.9549714 10.33394172 1 12 C0.34 12 -0.32 12 -1 12 C-1.66 12.66 -2.32 13.32 -3 14 C-2.48594831 9.03083364 -1.76615118 4.70973649 0 0 Z " fill="#30A5B8" transform="translate(15,84)"/>
<path d="M0 0 C0.99 0 1.98 0 3 0 C3.33 2.31 3.66 4.62 4 7 C1.07120629 6.37240135 -1.36095629 5.41377341 -4 4 C-2.68 3.67 -1.36 3.34 0 3 C0 2.01 0 1.02 0 0 Z " fill="#04D6EC" transform="translate(52,32)"/>
<path d="M0 0 C4.31392226 0.4793247 6.16569547 1.7457985 9 5 C8.34 6.32 7.68 7.64 7 9 C5.83037314 7.69013727 4.66437056 6.3770374 3.5 5.0625 C2.8503125 4.33160156 2.200625 3.60070312 1.53125 2.84765625 C0 1 0 1 0 0 Z " fill="#1B486D" transform="translate(32,174)"/>
<path d="M0 0 C0.99 0 1.98 0 3 0 C3.75 2.75 3.75 2.75 4 6 C2.0625 8.375 2.0625 8.375 0 10 C-0.19412181 8.52168779 -0.38012131 7.04230684 -0.5625 5.5625 C-0.66691406 4.73878906 -0.77132812 3.91507813 -0.87890625 3.06640625 C-0.91886719 2.38449219 -0.95882812 1.70257813 -1 1 C-0.67 0.67 -0.34 0.34 0 0 Z " fill="#066D93" transform="translate(170,128)"/>
<path d="M0 0 C2.10546875 0.421875 2.10546875 0.421875 4 1 C2.40012144 2.31772362 0.79494034 3.62901137 -0.8125 4.9375 C-1.70582031 5.66839844 -2.59914063 6.39929688 -3.51953125 7.15234375 C-6 9 -6 9 -9 10 C-9 9.01 -9 8.02 -9 7 C-7.35 6.67 -5.7 6.34 -4 6 C-3.67 5.01 -3.34 4.02 -3 3 C-1.6875 1.25 -1.6875 1.25 0 0 Z " fill="#1D7A94" transform="translate(73,117)"/>
<path d="M0 0 C2 1 2 1 4 4 C3.01 5.485 3.01 5.485 2 7 C1.34 7 0.68 7 0 7 C0 7.66 0 8.32 0 9 C-0.99 8.67 -1.98 8.34 -3 8 C-3 7.34 -3 6.68 -3 6 C-2.34 6 -1.68 6 -1 6 C-1.0309375 4.7934375 -1.0309375 4.7934375 -1.0625 3.5625 C-1 1 -1 1 0 0 Z " fill="#0582A4" transform="translate(133,109)"/>
<path d="M0 0 C0.66 0.33 1.32 0.66 2 1 C1.34 1.66 0.68 2.32 0 3 C-0.40047444 5.32275177 -0.7397104 7.65739357 -1 10 C-2.65 10 -4.3 10 -6 10 C-3 2.42857143 -3 2.42857143 0 0 Z " fill="#0A85A6" transform="translate(105,102)"/>
<path d="M0 0 C1 1 1 1 1.0625 3.5625 C1.041875 4.366875 1.02125 5.17125 1 6 C-1 3 -1 3 -1 1 C-1.54269531 1.2165625 -2.08539063 1.433125 -2.64453125 1.65625 C-3.35996094 1.9346875 -4.07539063 2.213125 -4.8125 2.5 C-5.87404297 2.91765625 -5.87404297 2.91765625 -6.95703125 3.34375 C-9 4 -9 4 -12 4 C-5.3996224 -1.38451857 -5.3996224 -1.38451857 0 0 Z " fill="#24889E" transform="translate(179,105)"/>
<path d="M0 0 C1.98 0 3.96 0 6 0 C5.64950425 3.24208567 5.43778819 4.61527704 2.9375 6.8125 C2.298125 7.204375 1.65875 7.59625 1 8 C0 1.125 0 1.125 0 0 Z " fill="#0792B4" transform="translate(32,96)"/>
<path d="M0 0 C1.46067199 0.45082469 2.91848032 0.91093537 4.375 1.375 C5.18710938 1.63023438 5.99921875 1.88546875 6.8359375 2.1484375 C9 3 9 3 11 5 C7.37 5 3.74 5 0 5 C0 3.35 0 1.7 0 0 Z " fill="#05E2F3" transform="translate(144,19)"/>
<path d="M0 0 C1.485 0.99 1.485 0.99 3 2 C3 2.66 3 3.32 3 4 C3.66 4 4.32 4 5 4 C5 4.66 5 5.32 5 6 C7.31 6.33 9.62 6.66 12 7 C11.34 7.66 10.68 8.32 10 9 C5.62099709 8.76952616 3.90982568 7.11050331 1 4 C0.34 4 -0.32 4 -1 4 C-0.67 2.68 -0.34 1.36 0 0 Z " fill="#033967" transform="translate(178,170)"/>
<path d="M0 0 C2.39763185 2.39763185 2.34280586 3.33273498 2.625 6.625 C2.69976562 7.44226563 2.77453125 8.25953125 2.8515625 9.1015625 C2.90054687 9.72804687 2.94953125 10.35453125 3 11 C2.01 10.67 1.02 10.34 0 10 C-1.125 2.25 -1.125 2.25 0 0 Z " fill="#DBDBDB" transform="translate(7,142)"/>
<path d="M0 0 C0.33 0.66 0.66 1.32 1 2 C0.0625 4.125 0.0625 4.125 -1 6 C-0.34 6 0.32 6 1 6 C1 6.99 1 7.98 1 9 C-0.65 8.67 -2.3 8.34 -4 8 C-4.33 8.66 -4.66 9.32 -5 10 C-5.66 9.34 -6.32 8.68 -7 8 C-4.69 5.36 -2.38 2.72 0 0 Z " fill="#D7F0F3" transform="translate(141,86)"/>
<path d="M0 0 C-1 3 -1 3 -4 5 C-4.99 5 -5.98 5 -7 5 C-7 5.99 -7 6.98 -7 8 C-8.32 8 -9.64 8 -11 8 C-11 7.34 -11 6.68 -11 6 C-9.35546875 4.4921875 -9.35546875 4.4921875 -7.1875 2.875 C-6.47980469 2.33617187 -5.77210937 1.79734375 -5.04296875 1.2421875 C-3 0 -3 0 0 0 Z " fill="#31D7DF" transform="translate(59,27)"/>
<path d="M0 0 C1.9375 0.3125 1.9375 0.3125 4 1 C4.33 1.99 4.66 2.98 5 4 C5.99 4.66 6.98 5.32 8 6 C6.02 6.99 6.02 6.99 4 8 C3.01 7.34 2.02 6.68 1 6 C1 5.34 1 4.68 1 4 C0.68521554 2.66216607 0.35412344 1.32796291 0 0 Z " fill="#123061" transform="translate(160,192)"/>
<path d="M0 0 C0.78375 0.04125 1.5675 0.0825 2.375 0.125 C0.88402342 3.9202131 -1.38200849 5.73542731 -4.625 8.125 C-4.75 5.25 -4.75 5.25 -4.625 2.125 C-2.625 0.125 -2.625 0.125 0 0 Z " fill="#16829F" transform="translate(148.625,111.875)"/>
<path d="M0 0 C1.32 0.66 2.64 1.32 4 2 C0.535 4.97 0.535 4.97 -3 8 C-3.33 5.69 -3.66 3.38 -4 1 C-3.01 1 -2.02 1 -1 1 C-1 1.66 -1 2.32 -1 3 C-0.34 3 0.32 3 1 3 C0.67 2.01 0.34 1.02 0 0 Z " fill="#1BA7BE" transform="translate(116,73)"/>
<path d="M0 0 C1.8871875 0.0309375 1.8871875 0.0309375 3.8125 0.0625 C3.8125 1.0525 3.8125 2.0425 3.8125 3.0625 C2.554375 3.248125 1.29625 3.43375 0 3.625 C-1.06154297 3.78162109 -1.06154297 3.78162109 -2.14453125 3.94140625 C-4.1875 4.0625 -4.1875 4.0625 -7.1875 3.0625 C-7.1875 2.4025 -7.1875 1.7425 -7.1875 1.0625 C-4.43671116 0.14557039 -2.82801087 -0.04636083 0 0 Z " fill="#0AE6EF" transform="translate(100.1875,11.9375)"/>
<path d="M0 0 C2.97 0 5.94 0 9 0 C8.67 0.99 8.34 1.98 8 3 C4.71303767 3.79953138 3.28976808 4.09658936 0 3 C0 2.01 0 1.02 0 0 Z " fill="#126289" transform="translate(184,144)"/>
<path d="M0 0 C2.25 2.75 2.25 2.75 2.25 5.75 C-2.16889613 4.39978174 -4.09345343 2.48884332 -6.75 -1.25 C-3.44418272 -2.8416898 -2.92749628 -2.39522423 0 0 Z " fill="#DDEFF2" transform="translate(31.75,138.25)"/>
<path d="M0 0 C0.33 0 0.66 0 1 0 C1.42589023 5.53657294 -0.094753 9.89665983 -2 15 C-2.66 15 -3.32 15 -4 15 C-3.43179252 9.54520815 -2.05362055 5.08940744 0 0 Z " fill="#30829B" transform="translate(186,117)"/>
<path d="M0 0 C0.33 1.32 0.66 2.64 1 4 C-0.52994792 5.20442708 -2.05989583 6.40885417 -3.58984375 7.61328125 C-5.27155077 9.05683091 -5.27155077 9.05683091 -6 12 C-7.32 11.67 -8.64 11.34 -10 11 C-9.44570312 10.45730469 -8.89140625 9.91460937 -8.3203125 9.35546875 C-7.23363281 8.28232422 -7.23363281 8.28232422 -6.125 7.1875 C-5.40570313 6.47980469 -4.68640625 5.77210937 -3.9453125 5.04296875 C-1.84641063 2.95600806 -1.84641063 2.95600806 0 0 Z " fill="#1D8CA1" transform="translate(143,97)"/>
<path d="M0 0 C0 1.98 0 3.96 0 6 C-1.98 6.99 -1.98 6.99 -4 8 C-4 6.35 -4 4.7 -4 3 C-4.99 3 -5.98 3 -7 3 C-7 2.34 -7 1.68 -7 1 C-4.53721199 -0.231394 -2.7204945 -0.07159196 0 0 Z " fill="#0491AF" transform="translate(56,96)"/>
<path d="M0 0 C1.98 0.495 1.98 0.495 4 1 C4 3.31 4 5.62 4 8 C2.35 7.67 0.7 7.34 -1 7 C-0.67 4.69 -0.34 2.38 0 0 Z " fill="#0C8FB4" transform="translate(188,96)"/>
<path d="M0 0 C2 2 2 2 2.1953125 4.3828125 C2.17210937 5.28773437 2.14890625 6.19265625 2.125 7.125 C2.10695312 8.03507812 2.08890625 8.94515625 2.0703125 9.8828125 C2.03550781 10.93082031 2.03550781 10.93082031 2 12 C1.01 12 0.02 12 -1 12 C-1.125 6.25 -1.125 6.25 0 4 C0 2.68 0 1.36 0 0 Z " fill="#0898B2" transform="translate(209,84)"/>
<path d="M0 0 C1.5625 1.25 1.5625 1.25 3 3 C2.9375 5 2.9375 5 2 7 C-0.0625 8.75 -0.0625 8.75 -2 10 C-1.54177532 6.53058454 -1.10868317 3.32604951 0 0 Z " fill="#19A5BF" transform="translate(18,74)"/>
<path d="M0 0 C1.32 0 2.64 0 4 0 C4.33 1.98 4.66 3.96 5 6 C2.525 5.01 2.525 5.01 0 4 C0 2.68 0 1.36 0 0 Z " fill="#075684" transform="translate(171,152)"/>
<path d="M0 0 C0.33 0 0.66 0 1 0 C1 1.98 1 3.96 1 6 C-0.98 6 -2.96 6 -5 6 C-5.33 5.01 -5.66 4.02 -6 3 C-4.125 1.9375 -4.125 1.9375 -2 1 C-1.34 1.33 -0.68 1.66 0 2 C0 1.34 0 0.68 0 0 Z " fill="#06638E" transform="translate(71,138)"/>
<path d="M0 0 C0.99 0 1.98 0 3 0 C3 4.62 3 9.24 3 14 C2.67 14 2.34 14 2 14 C1.67 10.37 1.34 6.74 1 3 C0.01 2.67 -0.98 2.34 -2 2 C-1.34 1.34 -0.68 0.68 0 0 Z " fill="#2C7D9D" transform="translate(197,128)"/>
<path d="M0 0 C0.99 0.33 1.98 0.66 3 1 C3.33 1.99 3.66 2.98 4 4 C2 4.66666667 0 5.33333333 -2 6 C-2.99 5.34 -3.98 4.68 -5 4 C-2.6875 1.9375 -2.6875 1.9375 0 0 Z " fill="#D3F2F4" transform="translate(44,96)"/>
<path d="M0 0 C1.485 0.99 1.485 0.99 3 2 C3 3.32 3 4.64 3 6 C3.66 6 4.32 6 5 6 C5 6.66 5 7.32 5 8 C4.34 8 3.68 8 3 8 C2.67 9.32 2.34 10.64 2 12 C0.40861915 7.82262526 -0.21278058 4.46839215 0 0 Z " fill="#E2E2E3" transform="translate(207,52)"/>
<path d="M0 0 C3.57104439 1.87949705 5.54744301 3.17053157 7 7 C6.01 7.66 5.02 8.32 4 9 C3.67 8.01 3.34 7.02 3 6 C2.34 5.67 1.68 5.34 1 5 C0.375 2.4375 0.375 2.4375 0 0 Z " fill="#28CDDF" transform="translate(180,37)"/>
<path d="M0 0 C0.33 0.99 0.66 1.98 1 3 C0.34 3 -0.32 3 -1 3 C-0.67 3.99 -0.34 4.98 0 6 C-0.7425 5.979375 -1.485 5.95875 -2.25 5.9375 C-4.70462279 5.99328688 -6.66109261 6.3069904 -9 7 C-6.03716687 4.61327331 -3.05729491 2.2646629 0 0 Z " fill="#E4EDED" transform="translate(175,192)"/>
<path d="M0 0 C-1.62339805 1.70884005 -3.29319053 3.37446717 -5 5 C-5.66 5 -6.32 5 -7 5 C-7.33 3.35 -7.66 1.7 -8 0 C-4.71303767 -0.79953138 -3.28976808 -1.09658936 0 0 Z " fill="#DEECF1" transform="translate(165,174)"/>
<path d="M0 0 C0 3.49889647 -0.54120332 4.0553603 -2.75 6.625 C-3.26046875 7.23601562 -3.7709375 7.84703125 -4.296875 8.4765625 C-6.19607419 10.17538747 -7.51275949 10.5998787 -10 11 C-6.79239749 7.19364503 -3.59253891 3.45436433 0 0 Z " fill="#249AA9" transform="translate(119,87)"/>
<path d="M0 0 C1.65 0.33 3.3 0.66 5 1 C2.11912454 3.40072955 -0.56404834 5.47291037 -4 7 C-4 6.01 -4 5.02 -4 4 C-3.01 4 -2.02 4 -1 4 C-0.67 2.68 -0.34 1.36 0 0 Z " fill="#D8F8F8" transform="translate(62,20)"/>
<path d="M0 0 C0.66 0 1.32 0 2 0 C1 3 1 3 -1.875 4.6875 C-5 6 -5 6 -8 6 C-7.34 4.68 -6.68 3.36 -6 2 C-4.02 2 -2.04 2 0 2 C0 1.34 0 0.68 0 0 Z " fill="#DADBDA" transform="translate(171,205)"/>
<path d="M0 0 C2.64 0.33 5.28 0.66 8 1 C7.67 1.66 7.34 2.32 7 3 C4.67843403 3.40729228 2.3431213 3.74438677 0 4 C0 2.68 0 1.36 0 0 Z " fill="#085985" transform="translate(120,148)"/>
<path d="M0 0 C1.32 0.33 2.64 0.66 4 1 C1.36 2.98 -1.28 4.96 -4 7 C-4.66 6.34 -5.32 5.68 -6 5 C-5.01 5 -4.02 5 -3 5 C-2.5359375 4.0409375 -2.5359375 4.0409375 -2.0625 3.0625 C-1 1 -1 1 0 0 Z " fill="#1A708B" transform="translate(131,128)"/>
<path d="M0 0 C2.31 0 4.62 0 7 0 C6.67 0.99 6.34 1.98 6 3 C5.34 3 4.68 3 4 3 C2.37485532 4.45833358 2.37485532 4.45833358 1 6 C0 1.125 0 1.125 0 0 Z " fill="#0689AD" transform="translate(24,104)"/>
<path d="M0 0 C0.66 0 1.32 0 2 0 C1.88637738 1.4800841 1.75877092 2.95910074 1.625 4.4375 C1.52058594 5.67306641 1.52058594 5.67306641 1.4140625 6.93359375 C1.27742187 7.61550781 1.14078125 8.29742187 1 9 C0.01 9.495 0.01 9.495 -1 10 C-1.02689216 8.52093108 -1.04634621 7.04172517 -1.0625 5.5625 C-1.07410156 4.73878906 -1.08570313 3.91507812 -1.09765625 3.06640625 C-1 1 -1 1 0 0 Z " fill="#0391AF" transform="translate(14,98)"/>
<path d="M0 0 C1.32 0.33 2.64 0.66 4 1 C2.02 3.31 0.04 5.62 -2 8 C-2.33 6.68 -2.66 5.36 -3 4 C-2.34 4 -1.68 4 -1 4 C-0.67 2.68 -0.34 1.36 0 0 Z " fill="#2196B0" transform="translate(132,92)"/>
<path d="M0 0 C1.63814448 2.45721672 2.61952199 4.34567811 3.625 7.0625 C3.88539063 7.75472656 4.14578125 8.44695312 4.4140625 9.16015625 C5 11 5 11 5 13 C4.34 13 3.68 13 3 13 C3 11.68 3 10.36 3 9 C2.01 8.67 1.02 8.34 0 8 C0 5.36 0 2.72 0 0 Z " fill="#25A4B6" transform="translate(205,71)"/>
<path d="M0 0 C0.598125 0.185625 1.19625 0.37125 1.8125 0.5625 C4.16408762 1.22093687 4.16408762 1.22093687 7 0 C7.66 0.99 8.32 1.98 9 3 C6.1875 3.6875 6.1875 3.6875 3 4 C1.125 2.625 1.125 2.625 0 1 C0 0.67 0 0.34 0 0 Z " fill="#1E7091" transform="translate(183,132)"/>
<path d="M0 0 C3 1 3 1 4.1875 3.0625 C4.455625 3.701875 4.72375 4.34125 5 5 C3.02 5.33 1.04 5.66 -1 6 C-0.67 4.02 -0.34 2.04 0 0 Z " fill="#057DA0" transform="translate(73,112)"/>
<path d="M0 0 C2.31 0 4.62 0 7 0 C5.02 2.31 3.04 4.62 1 7 C0 4 0 4 0 0 Z " fill="#13849C" transform="translate(152,104)"/>
<path d="M0 0 C1.65 0 3.3 0 5 0 C5 0.99 5 1.98 5 3 C4.34 3 3.68 3 3 3 C2.67 3.99 2.34 4.98 2 6 C0.68 5.67 -0.64 5.34 -2 5 C-1.34 3.35 -0.68 1.7 0 0 Z " fill="#038AAA" transform="translate(82,104)"/>
<path d="M0 0 C1.65 0 3.3 0 5 0 C2.03 3.96 2.03 3.96 -1 8 C-2 6 -2 6 -1.0625 2.875 C-0.5365625 1.451875 -0.5365625 1.451875 0 0 Z " fill="#1299B0" transform="translate(138,84)"/>
<path d="M0 0 C1.32 0 2.64 0 4 0 C3.67 1.65 3.34 3.3 3 5 C2.01 5 1.02 5 0 5 C-0.66 4.01 -1.32 3.02 -2 2 C-1.34 2 -0.68 2 0 2 C0 1.34 0 0.68 0 0 Z " fill="#E4F7F6" transform="translate(188,40)"/>
<path d="M0 0 C1.95216435 1.95216435 2.84826645 3.53199953 4 6 C3.34 6.66 2.68 7.32 2 8 C0.68 6.35 -0.64 4.7 -2 3 C-1.34 2.01 -0.68 1.02 0 0 Z " fill="#ECF5F5" transform="translate(177,178)"/>
<path d="M0 0 C2.7839183 1.39195915 2.97898997 3.15575779 4 6 C1.03 5.505 1.03 5.505 -2 5 C-1.34 3.35 -0.68 1.7 0 0 Z " fill="#E1EEEF" transform="translate(22,159)"/>
<path d="M0 0 C0.99 1.32 1.98 2.64 3 4 C2.34 5.32 1.68 6.64 1 8 C0.67 7.34 0.34 6.68 0 6 C-0.99 6.66 -1.98 7.32 -3 8 C-1.125 2.25 -1.125 2.25 0 0 Z " fill="#E6E6E6" transform="translate(213,152)"/>
<path d="M0 0 C2.48440102 2.16034872 3.58789525 3.70316202 4 7 C3.67 7.99 3.34 8.98 3 10 C2.34 10 1.68 10 1 10 C1.33 8.35 1.66 6.7 2 5 C1.34 5 0.68 5 0 5 C-0.5625 3.0625 -0.5625 3.0625 -1 1 C-0.67 0.67 -0.34 0.34 0 0 Z " fill="#195B80" transform="translate(145,149)"/>
<path d="M0 0 C0.99 0 1.98 0 3 0 C3 1.98 3 3.96 3 6 C2.01 6.33 1.02 6.66 0 7 C-1.04449911 3.86650268 -0.93423645 3.01031744 0 0 Z " fill="#026A95" transform="translate(105,131)"/>
<path d="M0 0 C0.33 0.66 0.66 1.32 1 2 C0 4 0 4 -2.3125 5.1875 C-5 6 -5 6 -9 5 C-6.03 3.35 -3.06 1.7 0 0 Z " fill="#D5EFF4" transform="translate(65,126)"/>
<path d="M0 0 C4.29 0 8.58 0 13 0 C11 2 11 2 7.6875 2.0625 C5.8621875 2.0315625 5.8621875 2.0315625 4 2 C2.32442621 2.28520405 0.65182755 2.59955696 -1 3 C-0.67 2.01 -0.34 1.02 0 0 Z " fill="#128DA4" transform="translate(169,94)"/>
<path d="M0 0 C1.65 0.33 3.3 0.66 5 1 C4.04578192 2.14926266 3.08647955 3.29430541 2.125 4.4375 C1.59132813 5.07558594 1.05765625 5.71367188 0.5078125 6.37109375 C-1 8 -1 8 -3 9 C-2.690625 8.443125 -2.38125 7.88625 -2.0625 7.3125 C-0.94238179 4.87459567 -0.43962636 2.63775814 0 0 Z " fill="#1291A8" transform="translate(100,88)"/>
<path d="M0 0 C1.65 0 3.3 0 5 0 C5 1.32 5 2.64 5 4 C3.68 4 2.36 4 1 4 C1 4.66 1 5.32 1 6 C0.34 6 -0.32 6 -1 6 C-0.649375 5.38125 -0.29875 4.7625 0.0625 4.125 C0.371875 3.42375 0.68125 2.7225 1 2 C0.67 1.34 0.34 0.68 0 0 Z " fill="#0296B7" transform="translate(131,88)"/>
<path d="M0 0 C1.46726798 3.81489674 0.43336419 6.29011622 -1 10 C-1.66 10 -2.32 10 -3 10 C-4 7 -4 7 -3.22265625 5.17578125 C-2.1484375 3.45052083 -1.07421875 1.72526042 0 0 Z " fill="#27C0CF" transform="translate(30,52)"/>
<path d="M0 0 C4.875 1.75 4.875 1.75 6 4 C4.02 4.66 2.04 5.32 0 6 C0 4.02 0 2.04 0 0 Z " fill="#EBF1F2" transform="translate(50,193)"/>
<path d="M0 0 C3.35595828 0.59927826 5.37801226 1.84622436 8 4 C5.39417629 4.93065133 4.35801776 5.14917407 1.75 4.0625 C1.1725 3.711875 0.595 3.36125 0 3 C0 2.01 0 1.02 0 0 Z " fill="#196185" transform="translate(156,150)"/>
<path d="M0 0 C0.66 0 1.32 0 2 0 C2.33 1.98 2.66 3.96 3 6 C1.68 6.33 0.36 6.66 -1 7 C-1.33 6.34 -1.66 5.68 -2 5 C-1.34 4.67 -0.68 4.34 0 4 C-0.66 3.34 -1.32 2.68 -2 2 C-1.34 2 -0.68 2 0 2 C0 1.34 0 0.68 0 0 Z " fill="#E7F5F5" transform="translate(196,136)"/>
<path d="M0 0 C0.66 0 1.32 0 2 0 C2.99 1.32 3.98 2.64 5 4 C1.7 4 -1.6 4 -5 4 C-4.34 3.34 -3.68 2.68 -3 2 C-2.01 2 -1.02 2 0 2 C0 1.34 0 0.68 0 0 Z " fill="#016F91" transform="translate(189,127)"/>
<path d="M0 0 C0.99 0.33 1.98 0.66 3 1 C1.35 2.98 -0.3 4.96 -2 7 C-2.99 6.34 -3.98 5.68 -5 5 C-3.35 3.35 -1.7 1.7 0 0 Z " fill="#DBF4F6" transform="translate(89,106)"/>
<path d="M0 0 C1.32 0 2.64 0 4 0 C4.33 1.32 4.66 2.64 5 4 C3.68 4.99 2.36 5.98 1 7 C0.67 4.69 0.34 2.38 0 0 Z " fill="#089CBD" transform="translate(96,88)"/>
<path d="M0 0 C0.66 0 1.32 0 2 0 C0.95125002 2.62187494 0.35068687 3.79371361 -2.125 5.25 C-2.74375 5.4975 -3.3625 5.745 -4 6 C-4 6.66 -4 7.32 -4 8 C-4.66 8 -5.32 8 -6 8 C-5.34 6.68 -4.68 5.36 -4 4 C-3.34 4 -2.68 4 -2 4 C-1.34 2.68 -0.68 1.36 0 0 Z " fill="#E9E9E9" transform="translate(26,40)"/>
<path d="M0 0 C3.91211733 1.15585285 6.8745041 2.35534962 10 5 C8 6 8 6 5.9375 5.6875 C4 5 4 5 3 3 C2.01 2.67 1.02 2.34 0 2 C0 1.34 0 0.68 0 0 Z " fill="#29DBE6" transform="translate(152,19)"/>
<path d="M0 0 C0 1.32 0 2.64 0 4 C0.66 4.33 1.32 4.66 2 5 C-0.97 4.67 -3.94 4.34 -7 4 C-3.375 0 -3.375 0 0 0 Z " fill="#D8FAFA" transform="translate(138,9)"/>
<path d="M0 0 C2.64 0 5.28 0 8 0 C7.67 1.32 7.34 2.64 7 4 C4.69 3.34 2.38 2.68 0 2 C0 1.34 0 0.68 0 0 Z " fill="#081853" transform="translate(98,208)"/>
<path d="M0 0 C1.39195915 4.17587745 -0.17676781 6.13474776 -2 10 C-2.33 10 -2.66 10 -3 10 C-2.88637738 8.5199159 -2.75877092 7.04089926 -2.625 5.5625 C-2.55539063 4.73878906 -2.48578125 3.91507813 -2.4140625 3.06640625 C-2.27742187 2.38449219 -2.14078125 1.70257813 -2 1 C-1.34 0.67 -0.68 0.34 0 0 Z " fill="#0A5775" transform="translate(207,145)"/>
<path d="M0 0 C0.66 0 1.32 0 2 0 C1.34 4.29 0.68 8.58 0 13 C-0.33 13 -0.66 13 -1 13 C-1.02686553 11.02090602 -1.04633375 9.04171029 -1.0625 7.0625 C-1.07410156 5.96035156 -1.08570313 4.85820313 -1.09765625 3.72265625 C-1 1 -1 1 0 0 Z " fill="#287B99" transform="translate(174,120)"/>
<path d="M0 0 C0.91058531 3.07322544 1.08886184 5.80097361 1 9 C-0.32 8.34 -1.64 7.68 -3 7 C-2.01 4.69 -1.02 2.38 0 0 Z " fill="#27A8BC" transform="translate(159,74)"/>
<path d="M0 0 C1.32 0.66 2.64 1.32 4 2 C1.36 3.98 -1.28 5.96 -4 8 C-3 4 -3 4 0 2 C0 1.34 0 0.68 0 0 Z " fill="#2CB2C4" transform="translate(127,64)"/>
<path d="M0 0 C2.475 0.495 2.475 0.495 5 1 C4.67 2.98 4.34 4.96 4 7 C2.10786631 4.61426621 0.97608217 2.92824652 0 0 Z " fill="#15557E" transform="translate(195,160)"/>
<path d="M0 0 C1.65 1.32 3.3 2.64 5 4 C4.67 4.66 4.34 5.32 4 6 C3.01 6 2.02 6 1 6 C0.34 4.35 -0.32 2.7 -1 1 C-0.67 0.67 -0.34 0.34 0 0 Z " fill="#196A8C" transform="translate(25,138)"/>
<path d="M0 0 C0.33 0 0.66 0 1 0 C1 1.65 1 3.3 1 5 C1.99 5 2.98 5 4 5 C3.67 5.99 3.34 6.98 3 8 C1.66666667 8 0.33333333 8 -1 8 C-0.67 5.36 -0.34 2.72 0 0 Z " fill="#E4F4F3" transform="translate(211,136)"/>
<path d="M0 0 C1.32 0 2.64 0 4 0 C2.60667426 3.36720387 1.0210714 4.9859524 -2 7 C-2.33 6.01 -2.66 5.02 -3 4 C-2.01 4 -1.02 4 0 4 C0 2.68 0 1.36 0 0 Z " fill="#13809A" transform="translate(84,106)"/>
<path d="M0 0 C1.32 0.66 2.64 1.32 4 2 C0.25 5 0.25 5 -2 5 C-2.33 4.01 -2.66 3.02 -3 2 C-2.01 1.34 -1.02 0.68 0 0 Z " fill="#E3F9FA" transform="translate(135,69)"/>
<path d="M0 0 C-0.33 0.99 -0.66 1.98 -1 3 C-3.97 2.67 -6.94 2.34 -10 2 C-10 1.67 -10 1.34 -10 1 C-2.25 0 -2.25 0 0 0 Z " fill="#2C3460" transform="translate(96,209)"/>
<path d="M0 0 C2.475 0.495 2.475 0.495 5 1 C3.68799596 2.35432675 2.35368596 3.68733482 1 5 C0.67 5 0.34 5 0 5 C0 3.35 0 1.7 0 0 Z " fill="#1E3962" transform="translate(176,186)"/>
<path d="M0 0 C0.66 0 1.32 0 2 0 C2.66 1.65 3.32 3.3 4 5 C2.35 5 0.7 5 -1 5 C-0.67 3.35 -0.34 1.7 0 0 Z " fill="#093A6F" transform="translate(161,179)"/>
<path d="M0 0 C-0.33 1.98 -0.66 3.96 -1 6 C-2.65 4.35 -4.3 2.7 -6 1 C-3.92446352 0.4465236 -2.15634036 0 0 0 Z " fill="#255578" transform="translate(178,168)"/>
<path d="M0 0 C2.475 0.99 2.475 0.99 5 2 C4.34 3.32 3.68 4.64 3 6 C2.67 5.34 2.34 4.68 2 4 C1.34 3.67 0.68 3.34 0 3 C0 2.01 0 1.02 0 0 Z " fill="#D1E3EA" transform="translate(172,159)"/>
<path d="M0 0 C1.65 0 3.3 0 5 0 C4.34 1.32 3.68 2.64 3 4 C3.66 4.33 4.32 4.66 5 5 C4.34 5.66 3.68 6.32 3 7 C2.01 4.69 1.02 2.38 0 0 Z " fill="#045A83" transform="translate(152,145)"/>
<path d="M0 0 C0.66 0.66 1.32 1.32 2 2 C1.34 2 0.68 2 0 2 C0 2.66 0 3.32 0 4 C-1.65 4 -3.3 4 -5 4 C-5.33 3.34 -5.66 2.68 -6 2 C-4.02 1.34 -2.04 0.68 0 0 Z " fill="#1F6B8D" transform="translate(57,140)"/>
<path d="M0 0 C0.33 0.66 0.66 1.32 1 2 C-1.3125 4.5 -1.3125 4.5 -4 7 C-4.99 7 -5.98 7 -7 7 C-4.69 4.69 -2.38 2.38 0 0 Z " fill="#238698" transform="translate(100,107)"/>
<path d="M0 0 C0.33 0.99 0.66 1.98 1 3 C-0.65 4.65 -2.3 6.3 -4 8 C-4.66 7.67 -5.32 7.34 -6 7 C-4.02 4.69 -2.04 2.38 0 0 Z " fill="#3AC9D2" transform="translate(37,44)"/>
</svg>
